<?xml version="1.0" encoding="UTF-8"?>
<svg id="Layer_1" data-name="Layer 1" xmlns="http://www.w3.org/2000/svg" viewBox="0 0 1920 1080">
  <defs>
    <style>
      .cls-1 {
        fill: #3b6aff;
      }
    </style>
  </defs>
  <polygon class="cls-1" points="576.15 465.36 522.87 465.36 522.87 558.91 562.31 558.91 562.31 632.12 683.54 632.12 683.54 558.91 722.97 558.91 722.97 465.36 669.7 465.36 576.15 465.36"/>
  <polygon class="cls-1" points="1070.82 490.04 1046.08 465.37 958.38 465.37 958.38 632.12 1046.08 632.12 1046.08 607.34 1070.82 632.12 1158.49 632.12 1158.49 465.37 1070.82 465.37 1070.82 490.04"/>
  <path class="cls-1" d="M1295.81,465.36h-116.73v166.75h113.75s1.97,0,2.97,0c46.04,0,83.37-37.33,83.37-83.37s-37.33-83.37-83.37-83.37"/>
  <path class="cls-1" d="M943.67,548.74c0-46.04-37.33-83.37-83.37-83.37h-116.73v166.75h182.46l-10.98-20.6c17.51-15.28,28.63-37.71,28.63-62.78"/>
  <path class="cls-1" d="M1379.41,483.31c-2.46,0-4.77-.46-6.9-1.38-2.14-.92-4-2.2-5.6-3.83s-2.84-3.52-3.72-5.65c-.89-2.14-1.33-4.4-1.33-6.8s.45-4.67,1.35-6.82c.9-2.15,2.15-4.05,3.75-5.68,1.6-1.63,3.46-2.92,5.6-3.86,2.14-.94,4.45-1.41,6.95-1.41s4.77.46,6.9,1.38c2.14.92,4,2.19,5.6,3.8,1.6,1.61,2.84,3.49,3.75,5.63.9,2.14,1.35,4.42,1.35,6.85s-.45,4.67-1.35,6.82c-.91,2.15-2.16,4.05-3.78,5.68-1.61,1.63-3.49,2.92-5.62,3.86-2.14.94-4.46,1.41-6.96,1.41M1379.41,479.04c1.91,0,3.68-.35,5.31-1.07,1.63-.71,3.07-1.68,4.3-2.92,1.23-1.23,2.19-2.66,2.86-4.3.68-1.63,1.02-3.37,1.02-5.21s-.34-3.57-1.02-5.18c-.67-1.62-1.62-3.04-2.84-4.27-1.22-1.23-2.64-2.2-4.27-2.89-1.63-.7-3.39-1.04-5.26-1.04s-3.68.35-5.31,1.07c-1.63.71-3.05,1.69-4.25,2.92-1.2,1.23-2.14,2.67-2.81,4.3-.68,1.63-1.02,3.37-1.02,5.21s.33,3.57.99,5.18c.66,1.61,1.6,3.04,2.81,4.27s2.63,2.2,4.25,2.89c1.61.7,3.36,1.04,5.23,1.04M1372.8,473.31v-16.57h7.19c2.22,0,3.93.5,5.13,1.48,1.2.99,1.8,2.42,1.8,4.3s-.6,3.41-1.8,4.51c-1.2,1.09-2.91,1.64-5.13,1.64h-2.97v4.64h-4.22ZM1377.02,465.39h2.97c.94,0,1.65-.24,2.14-.73s.73-1.16.73-2.03-.24-1.49-.73-1.96c-.49-.47-1.2-.7-2.14-.7h-2.97v5.42ZM1382.59,473.31l-3.28-6.2h4.12l4.01,6.2h-4.84Z"/>
</svg>