<?xml version="1.0" encoding="UTF-8"?>
<svg id="Layer_2" data-name="Layer 2" xmlns="http://www.w3.org/2000/svg" viewBox="0 0 138.38 76.51">
  <defs>
    <style>
      .cls-1 {
        fill: #174fa3;
      }

      .cls-2 {
        fill: #3b6aff;
      }
    </style>
  </defs>
  <g id="Layer_1-2" data-name="Layer 1">
    <g>
      <path class="cls-2" d="M31.68,5.34l-12.22,44.48L0,44.49,12.22,0l19.46,5.34Z"/>
      <path class="cls-1" d="M126.15,0l12.22,44.49-19.46,5.33-12.22-44.48L126.15,0Z"/>
      <path class="cls-1" d="M101.99,9.92l8.76,32-.26.2c-1.04.81-2.48.81-3.52,0l-40.79-31.57c-1.27-.98-3.06-.75-4.04.49-.98,1.27-.75,3.08.52,4.06l4.55,3.52-3.89,5.04c-.23.26-.43.52-.66.78-5.07,5.59-13.69,6.03-19.29.98l8.62-14.56c3.83-6.46,11.39-9.69,18.71-8.04l31.28,7.09Z"/>
      <path class="cls-2" d="M102.11,45.64c2.62,2.05,3.11,5.85,1.07,8.5-2.05,2.65-5.85,3.11-8.48,1.07l-1.15-.86c2.65,2.05,3.14,5.85,1.1,8.5-2.05,2.62-5.85,3.11-8.5,1.07l-3.69-2.85c2.65,2.05,3.14,5.85,1.1,8.5-2.05,2.65-5.85,3.11-8.5,1.07l-6.4-4.96c2.62,2.05,3.11,5.85,1.07,8.5-2.05,2.62-5.85,3.11-8.5,1.07l-35.26-27.3,10.35-37.65,10.03-1.12-10.32,17.35,3.52,3.17c7.93,7.21,20.21,6.57,27.42-1.38.32-.35.63-.72.95-1.12l3.89-5.02,30.33,23.47Z"/>
    </g>
  </g>
</svg>