<?xml version="1.0" encoding="UTF-8"?>
<svg id="Layer_2" data-name="Layer 2" xmlns="http://www.w3.org/2000/svg" viewBox="0 0 83.02 53.48">
  <defs>
    <style>
      .cls-1 {
        fill: #174fa3;
      }

      .cls-2 {
        fill: #3b6aff;
      }
    </style>
  </defs>
  <g id="Layer_1-2" data-name="Layer 1">
    <g>
      <g>
        <path class="cls-2" d="M10.93,18.02c2.48-.73,5.3-1.38,8.36-1.91l-4.78-11.91h0c-.63.16-1.23.31-1.83.47C5.61,6.61,1.4,9.22,1.4,11.59c.03,2.19,3.55,4.54,9.53,6.42Z"/>
        <path class="cls-1" d="M10.92,19.46l-.4-.13C5.76,17.83.07,15.28.03,11.61.03,7.34,7.73,4.6,12.32,3.35c.62-.16,1.23-.32,1.86-.48l1.16-.29,5.86,14.61-1.68.29c-2.94.5-5.7,1.13-8.2,1.87l-.4.12ZM13.68,5.84l-.65.17c-7.52,2.05-10.25,4.47-10.25,5.59,0,.81,1.74,2.9,8.17,4.98,2-.58,4.16-1.09,6.43-1.52l-3.7-9.22Z"/>
      </g>
      <g>
        <path class="cls-2" d="M21.54,15.75c5.77-.86,12.25-1.36,18.91-1.41V1.38c-8.7.05-16.92.86-23.74,2.32l4.83,12.04Z"/>
        <path class="cls-1" d="M20.66,17.27L14.82,2.71l1.6-.34C23.35.87,31.66.06,40.43,0h1.39s0,15.69,0,15.69h-1.37c-6.48.06-12.95.55-18.71,1.41l-1.08.16ZM18.6,4.73l3.81,9.5c5.19-.73,10.9-1.16,16.65-1.26V2.78c-7.41.11-14.42.78-20.47,1.95Z"/>
      </g>
      <g>
        <path class="cls-2" d="M67.6,3.97l-4.8,11.96c3.42.57,6.58,1.25,9.35,2.09,6.01-1.88,9.5-4.23,9.5-6.42,0-2.4-4.23-4.99-11.28-6.92-.89-.26-1.83-.5-2.77-.71Z"/>
        <path class="cls-1" d="M72.15,19.46l-.41-.12c-2.57-.77-5.57-1.44-9.18-2.05l-1.69-.28,5.88-14.63,1.14.25c.97.22,1.94.46,2.86.73,4.57,1.25,12.27,3.99,12.27,8.24,0,3.69-5.69,6.24-10.47,7.74l-.4.13ZM64.71,14.87c2.81.51,5.26,1.08,7.42,1.71,6.43-2.07,8.14-4.16,8.14-4.98,0-1.12-2.73-3.53-10.26-5.59-.52-.15-1.04-.29-1.57-.42l-3.73,9.29Z"/>
      </g>
      <g>
        <path class="cls-2" d="M42.63,14.34c6.29.05,12.4.5,17.94,1.28l4.86-12.09c-6.61-1.33-14.49-2.06-22.77-2.12l-.03,12.93h0Z"/>
        <path class="cls-1" d="M61.45,17.13l-1.07-.15c-5.57-.79-11.54-1.21-17.76-1.27h-1.37s.03-15.69.03-15.69h1.38c8.38.06,16.34.8,23.03,2.15l1.62.33-5.88,14.63ZM44.01,12.98c5.45.09,10.71.47,15.68,1.13l3.83-9.54c-5.79-1.05-12.47-1.65-19.49-1.76l-.02,10.17Z"/>
      </g>
      <g>
        <path class="cls-1" d="M15.22,19.17c1.49.34,3.03.65,4.67.94.24.05.47.08.71.13.03,0,.05,0,.1.03.21.03.42.08.65.1.21.03.39.05.6.1.47.08.97.13,1.46.21,3.45.47,7.15.81,10.97.99.29.03.6.03.89.05.89.03,1.78.08,2.69.08.29,0,.57.03.86.03h5.48c.29,0,.57,0,.86-.03.89-.03,1.8-.05,2.69-.08.29-.03.6-.03.89-.05,3.81-.18,7.52-.52,10.97-.99.5-.08.97-.13,1.46-.21.21-.03.39-.05.6-.1.21-.03.44-.08.65-.1.03,0,.05,0,.1-.03.24-.03.47-.08.71-.13,1.62-.29,3.19-.6,4.67-.94-7.31-1.7-16.63-2.64-26.32-2.64s-19.06.94-26.37,2.64Z"/>
        <path class="cls-1" d="M44.31,23.21l-6.35-.02c-.61,0-1.21-.02-1.81-.05l-1.9-.09c-3.76-.18-7.49-.52-11.02-1l-1.5-.21c-.27-.06-.4-.08-.55-.1-.14-.02-.29-.04-.43-.07l-1.15-.21c-1.61-.28-3.18-.6-4.69-.94l-5.84-1.33,5.83-1.36c7.42-1.72,16.9-2.67,26.68-2.67s19.21.95,26.63,2.67l5.83,1.36-5.84,1.33c-1.51.34-3.1.66-4.74.95-.18.04-.35.08-.52.1l-.09.05-.92.12c-.11.03-.34.07-.6.1l-1.43.2c-3.56.49-7.29.82-11.11,1.01l-3.6.13c-.25.02-.58.02-.9.02ZM22.66,19.19l.97.13c3.42.47,7.07.8,10.82.98l1.81.09c.56.02,1.13.04,1.7.04l6.21.02c.4,0,.63,0,.88-.02l3.56-.13c3.81-.18,7.46-.51,10.91-.98l.93-.13c-11.54-1.67-26.28-1.66-37.79,0Z"/>
      </g>
      <g>
        <path class="cls-2" d="M1.43,30.87v10.99c0,2.4,4.2,5.01,11.25,6.95,4.99,1.38,11.07,2.35,17.7,2.85v-12.95c-8.41-.65-16.01-2.04-21.49-3.92-3.34-1.12-5.85-2.45-7.47-3.92Z"/>
        <path class="cls-1" d="M31.77,53.13l-1.48-.11c-6.76-.51-12.98-1.51-17.97-2.89C7.74,48.88.05,46.13.05,41.86l-.05-15.69,2.35,3.68c1.48,1.34,3.9,2.6,6.99,3.63,5.37,1.84,12.88,3.21,21.16,3.85l1.27.1v15.71ZM2.81,33.57v8.29c0,1.13,2.73,3.56,10.24,5.62,4.47,1.24,9.96,2.16,15.96,2.68v-10.19c-8-.7-15.26-2.07-20.56-3.88-2.22-.74-4.1-1.58-5.65-2.52Z"/>
      </g>
      <g>
        <path class="cls-2" d="M32.58,51.81c2.56.16,5.17.24,7.86.26v-16.82h-7.86v16.56Z"/>
        <path class="cls-1" d="M41.82,53.46h-1.39c-2.91-.04-5.5-.13-7.93-.28l-1.29-.08v-19.23h10.61v19.59ZM33.96,50.51c1.61.08,3.29.14,5.11.17v-14.04h-5.11v13.88Z"/>
      </g>
      <g>
        <path class="cls-2" d="M42.63,52.09c2.66-.03,5.3-.1,7.86-.26v-16.56h-7.86v16.82h0Z"/>
        <path class="cls-1" d="M41.26,53.48v-19.58h10.61v19.23l-1.29.08c-2.45.15-5.11.24-7.93.26h-1.39ZM44.01,36.66v14.04c1.78-.03,3.49-.09,5.11-.17v-13.87h-5.11Z"/>
      </g>
      <g>
        <path class="cls-2" d="M52.69,38.72v12.95c6.63-.52,12.72-1.49,17.7-2.85,7.05-1.93,11.25-4.54,11.25-6.95v-10.99c-1.62,1.44-4.1,2.74-7.42,3.92-5.48,1.88-13.11,3.26-21.54,3.92Z"/>
        <path class="cls-1" d="M51.31,53.17v-15.72l1.27-.1c8.32-.65,15.85-2.01,21.2-3.85,3.13-1.11,5.48-2.34,6.95-3.64l2.24-3.35.05,15.37c0,4.27-7.69,7.02-12.27,8.27-4.99,1.36-11.2,2.36-17.96,2.89l-1.48.12ZM54.07,39.99v10.18c6.01-.54,11.5-1.46,15.96-2.68,7.51-2.06,10.24-4.49,10.24-5.62v-8.31c-1.5.9-3.35,1.74-5.58,2.53-5.3,1.82-12.58,3.18-20.62,3.89Z"/>
      </g>
      <g>
        <path class="cls-2" d="M72.61,20.16c-.05.03-.1.05-.16.05-2.59.78-5.54,1.46-8.75,2.04-.24.05-.44.08-.68.1-.13.03-.26.05-.42.08-.21.03-.42.08-.63.1s-.42.08-.65.1l-.47.08c-.31.05-.65.1-.97.13-4.99.68-10.42,1.07-16.09,1.18-.76,0-1.54.03-2.3.03s-1.54,0-2.3-.03c-5.64-.08-11.1-.47-16.09-1.18-.31-.05-.65-.08-.97-.13-.16-.03-.31-.05-.47-.08-.21-.03-.42-.05-.65-.1-.21-.03-.42-.05-.63-.1-.13-.03-.26-.05-.42-.08-.24-.03-.44-.08-.68-.1-3.21-.55-6.16-1.23-8.75-2.04-.05-.03-.1-.03-.16-.05h-.03c-3.37-1.04-6.84-2.48-9.01-4.39v11.02c.05,3.68,10.24,8.3,28.96,9.77v-2.38c0-.6.5-1.1,1.1-1.1h20.11c.6,0,1.1.5,1.1,1.1v2.38c8.17-.63,15.54-1.98,20.84-3.81,5.17-1.8,8.12-3.97,8.12-5.98v-10.99c-2.12,1.91-5.59,3.34-8.98,4.39t0,0Z"/>
        <path class="cls-1" d="M31.71,38.05l-1.48-.12C12.22,36.52.07,32.06,0,26.81l.03-15.42,2.26,3.35c1.68,1.48,4.48,2.84,8.31,4.04h.13l.33.16c2.39.73,5.28,1.4,8.49,1.95.07,0,.22.03.36.06l.78.14c.2.05.36.06.52.09.31.06.48.08.64.1l1.5.22c4.87.69,10.23,1.08,15.88,1.16.77.03,1.6.01,2.28.03l2.3-.03c5.64-.1,10.99-.49,15.9-1.16.34-.03.64-.08.92-.13l.82-.13.24,1.35-.24-1.35.38-.06c.34-.06.48-.09.63-.1l.42-.08c.19-.02.35-.04.54-.08,3.08-.55,5.82-1.18,8.18-1.87l.78-.24c3.87-1.21,6.66-2.56,8.3-4.04l2.3-2.07v14.09c0,3.41-4.92,5.84-9.04,7.28-5.43,1.87-12.96,3.25-21.19,3.88l-1.48.12v-3.58h-19.55v3.59ZM31.43,31.71h20.11c1.36,0,2.47,1.11,2.47,2.47v.88c7.42-.66,14.12-1.93,19.01-3.62,5.69-1.98,7.19-3.93,7.19-4.68v-8.31c-1.84,1.09-4.21,2.09-7.09,2.99l-.36.12c-2.55.77-5.51,1.46-8.82,2.05-.23.05-.48.09-.76.12l-.34.07-.57-1.3.57,1.3-.68.11c-.38.06-.53.09-.69.1l-.4.07c-.33.06-.71.11-1.06.14-4.95.68-10.41,1.07-16.18,1.18l-2.32.03c-.77,0-1.57,0-2.35-.03-5.74-.08-11.21-.48-16.23-1.19l-.43-.06c-.19-.02-.39-.05-.57-.08l-.47-.08c-.18-.02-.43-.05-.71-.12-.15-.01-.41-.05-.66-.11l-1-.16c-3.34-.57-6.35-1.27-8.93-2.08l-.18-.05c-2.93-.91-5.34-1.93-7.22-3.04v8.36c.03,2.11,7.77,6.63,26.2,8.27v-.88c0-1.36,1.11-2.47,2.47-2.47ZM72.63,20.19l.6,1.2-.6-1.2Z"/>
      </g>
    </g>
  </g>
</svg>