<?xml version="1.0" encoding="UTF-8"?>
<svg id="Layer_2" data-name="Layer 2" xmlns="http://www.w3.org/2000/svg" viewBox="0 0 70.39 69.14">
  <defs>
    <style>
      .cls-1 {
        fill: #174fa3;
      }

      .cls-2 {
        fill: #3b6aff;
      }
    </style>
  </defs>
  <g id="Layer_1-2" data-name="Layer 1">
    <g>
      <path class="cls-2" d="M65.75,16.81c-3.08-5.24-7.27-9.34-12.57-12.33C47.9,1.49,41.9,0,35.2,0s-12.57,1.49-17.92,4.48c-5.33,2.99-9.56,7.09-12.64,12.33C1.54,22.04,0,27.97,0,34.57s1.54,12.35,4.64,17.59c3.08,5.26,7.31,9.38,12.64,12.42,5.35,3.05,11.32,4.57,17.92,4.57s12.71-1.52,17.99-4.57c5.31-3.03,9.5-7.15,12.57-12.42,3.1-5.24,4.64-11.1,4.64-17.59s-1.54-12.53-4.64-17.76ZM53.58,53.18c-4.7,4.77-10.83,7.16-18.39,7.16s-13.71-2.39-18.46-7.16c-4.77-4.77-7.15-10.97-7.15-18.61s2.39-13.86,7.15-18.63c4.75-4.77,10.92-7.15,18.46-7.15s13.69,2.39,18.39,7.15c4.73,4.77,7.07,10.99,7.07,18.63s-2.34,13.84-7.07,18.61Z"/>
      <path class="cls-1" d="M44.32,38.17c3.33-1.88,5.02-5.02,5.02-9.41,0-3.69-1.26-6.47-3.79-8.4-2.49-1.96-6.06-2.92-10.67-2.92h-13.21v33h9.75v-9.41h4.54l4.42,9.41h10.67l-6.73-12.26ZM38.14,32.04c-.84.75-2.12,1.11-3.89,1.11h-3.14v-8.62h3.07c3.62,0,5.43,1.42,5.43,4.25,0,1.47-.48,2.56-1.47,3.26Z"/>
    </g>
  </g>
</svg>