<?xml version="1.0" encoding="UTF-8"?>
<svg id="Layer_2" data-name="Layer 2" xmlns="http://www.w3.org/2000/svg" viewBox="0 0 56.95 73.96">
  <defs>
    <style>
      .cls-1 {
        fill: #3b6aff;
      }

      .cls-1, .cls-2 {
        fill-rule: evenodd;
      }

      .cls-2 {
        fill: #174fa3;
      }
    </style>
  </defs>
  <g id="Layer_1-2" data-name="Layer 1">
    <g>
      <path class="cls-2" d="M39.71,4.32v9.19h-22.48V4.32h6.26c.74,0,1.3-.67,1.18-1.4l-.51-2.92h8.63l-.41,2.97c-.1.72.46,1.36,1.18,1.36h6.15Z"/>
      <path class="cls-1" d="M39.72,7.99c0,.51.02.99-.02,1.43-.06.61-.24,1.16-.78,1.7-.51.51-1.2.8-1.92.8h-17.06c-1.5,0-2.71-1.22-2.71-2.71v-1.22l-17.23-.02.12,66h56.83V7.97l-17.23.02ZM5.19,23.21c.28-.21.66-.26.98-.12.15.06.29.16.39.28l1.63,1.79,4.24-4.66c.38-.42,1.02-.45,1.44-.07.42.38.45,1.02.07,1.44l-5,5.49c-.38.42-1.02.45-1.44.07-.02-.02-.05-.04-.07-.07-.77-.89-1.6-1.75-2.39-2.62-.42-.44-.37-1.16.14-1.53ZM4.95,36.94c.4-.57,1.19-.59,1.62-.09l1.63,1.79,4.24-4.66h0c.38-.42,1.02-.45,1.44-.07.42.38.45,1.02.07,1.44l-5,5.49s-.04.05-.07.07c-.42.38-1.06.35-1.44-.07-.81-.85-1.6-1.75-2.39-2.62-.17-.17-.27-.4-.29-.66-.01-.22.05-.44.18-.62ZM13.96,62.29l-5,5.49s-.04.05-.07.07c-.42.38-1.06.35-1.44-.07-.79-.88-1.59-1.75-2.39-2.62-.36-.41-.33-1.03.07-1.4.41-.39,1.05-.38,1.44.03l1.63,1.8,4.24-4.66h0c.38-.42,1.02-.45,1.44-.07.42.38.45,1.02.07,1.44ZM13.96,48.82l-5,5.49s-.04.05-.07.07c-.42.38-1.06.35-1.44-.07-.81-.85-1.6-1.75-2.39-2.62-.36-.41-.33-1.03.07-1.4.41-.39,1.05-.38,1.44.03l1.63,1.79,4.24-4.66h0c.38-.42,1.03-.45,1.45-.07.42.38.45,1.03.07,1.45ZM44.31,64.23h-26.3v-2.42h26.3v2.42ZM44.31,51.42h-26.3v-2.42h26.3v2.42ZM44.31,38.62h-26.3v-2.42h26.3v2.42ZM44.31,25.81h-26.3v-2.42h26.3v2.42Z"/>
    </g>
  </g>
</svg>