<?xml version="1.0" encoding="UTF-8"?>
<svg id="Layer_2" data-name="Layer 2" xmlns="http://www.w3.org/2000/svg" viewBox="0 0 123.85 123.85">
  <defs>
    <style>
      .cls-1 {
        fill: #174fa3;
      }

      .cls-2 {
        fill: #3b6aff;
      }
    </style>
  </defs>
  <g id="Layer_1-2" data-name="Layer 1">
    <g>
      <path class="cls-2" d="M123.85,75.24v-26.63h-12.01c-1.18-4.45-2.94-8.67-5.21-12.56l8.5-8.5-18.84-18.83-8.49,8.49c-3.89-2.26-8.1-4.02-12.56-5.2V0h-26.63v12.01c-4.45,1.19-8.67,2.95-12.56,5.21l-8.49-8.49L8.72,27.55l8.5,8.5c-2.26,3.89-4.03,8.1-5.21,12.56H0v26.63h12c1.19,4.45,2.95,8.67,5.21,12.56h0s-8.49,8.49-8.49,8.49l18.84,18.84,8.49-8.5c3.9,2.26,8.11,4.03,12.56,5.21v12h26.63v-12.01c4.45-1.18,8.67-2.94,12.56-5.21l8.49,8.5,18.84-18.84-8.49-8.49c2.26-3.9,4.02-8.11,5.21-12.56h12.01ZM75.24,88.31c-1.31.67-2.67,1.23-4.08,1.69-2.91.96-6.01,1.48-9.24,1.48s-6.34-.52-9.25-1.48c-1.4-.46-2.76-1.03-4.07-1.68-5.63-2.84-10.23-7.44-13.07-13.08-.67-1.31-1.23-2.66-1.69-4.08-.96-2.91-1.48-6.01-1.48-9.24s.52-6.34,1.48-9.24c.46-1.41,1.03-2.77,1.69-4.07,2.84-5.63,7.44-10.23,13.07-13.06,1.31-.67,2.66-1.23,4.08-1.69,2.91-.96,6.01-1.48,9.24-1.48s6.33.52,9.24,1.47c1.41.47,2.77,1.03,4.08,1.7,5.63,2.84,10.22,7.43,13.06,13.06.67,1.31,1.23,2.66,1.69,4.07.96,2.9,1.48,6.01,1.48,9.24s-.52,6.33-1.48,9.24c-.46,1.41-1.03,2.77-1.68,4.08-2.84,5.63-7.44,10.23-13.07,13.07Z"/>
      <circle class="cls-1" cx="61.92" cy="61.93" r="21.1"/>
    </g>
  </g>
</svg>