<?xml version="1.0" encoding="UTF-8"?>
<svg id="Layer_2" data-name="Layer 2" xmlns="http://www.w3.org/2000/svg" viewBox="0 0 63.76 65.01">
  <defs>
    <style>
      .cls-1 {
        fill: #174fa3;
      }

      .cls-2 {
        fill: #3b6aff;
      }
    </style>
  </defs>
  <g id="Layer_1-2" data-name="Layer 1">
    <g>
      <polygon class="cls-2" points="0 53.72 28.65 53.27 28.65 65.01 44.72 53.27 63.76 53.27 63.76 0 0 0 0 53.72"/>
      <path class="cls-1" d="M46.55,21.41c0,.31-.04.62-.08.93-.36,2.32-1.71,4.37-3.23,6.15l-11.38,11.25-8.86-8.69c-2.44-2.4-5.01-5.02-5.65-8.38-.46-2.44.22-5.07,1.81-6.98,3.12-3.75,8.92-3.97,12.63-.98,2.78-2.2,6.83-2.73,10-1.15,2.89,1.44,4.84,4.63,4.75,7.84Z"/>
    </g>
  </g>
</svg>