<?xml version="1.0" encoding="UTF-8"?>
<svg id="Layer_2" data-name="Layer 2" xmlns="http://www.w3.org/2000/svg" viewBox="0 0 82.07 49.76">
  <defs>
    <style>
      .cls-1 {
        fill: #174fa3;
      }

      .cls-2 {
        fill: #3b6aff;
      }
    </style>
  </defs>
  <g id="Layer_1-2" data-name="Layer 1">
    <g>
      <path class="cls-2" d="M64.06.05l13.05-.05.2,44.48-63.24-.03-14.07.04V.19S64.06.05,64.06.05Z"/>
      <path class="cls-2" d="M2.31,49.76V3.02s79.54-.2,79.54-.2l.21,46.92H2.31ZM4.76,5.45v41.86s12.84-.03,12.84-.03l62.02.03-.19-42.04-74.67.18Z"/>
      <g>
        <path class="cls-1" d="M26.4,38.53h-14.57c0-4.58-3.71-8.29-8.29-8.29V14.21c4.58,0,8.29-3.7,8.29-8.29h15.84c-5.46,3.58-9.07,9.75-9.07,16.77,0,6.43,3.05,12.18,7.8,15.84Z"/>
        <path class="cls-1" d="M73.76,14.21v16.03c-4.58,0-8.28,3.7-8.28,8.29h-13.6c4.75-3.66,7.8-9.41,7.8-15.84,0-7.02-3.61-13.18-9.07-16.77h14.87c0,4.58,3.7,8.29,8.28,8.29Z"/>
      </g>
      <g>
        <path class="cls-1" d="M37.6,34.73v-1.02c-1.14-.06-2.28-.23-3.41-.51-1.14-.28-2.11-.69-2.92-1.23l.44-3.49c1.7,1.14,3.67,1.76,5.9,1.86v-6.51c-2.23-.76-3.84-1.63-4.83-2.62s-1.48-2.25-1.48-3.8c0-1.22.28-2.26.84-3.12.56-.86,1.32-1.54,2.27-2.04.95-.49,2.02-.81,3.2-.94v-1.54h2.01v1.49c.81.06,1.7.21,2.67.46.97.25,1.85.61,2.65,1.08l-.61,3.34c-1.45-.83-3.02-1.33-4.71-1.48v6.01c2.32.78,3.98,1.68,4.97,2.7.99,1.03,1.48,2.35,1.48,3.95,0,1.2-.28,2.25-.83,3.14-.55.89-1.32,1.61-2.3,2.15-.98.54-2.09.88-3.33,1.01v1.11h-2.01ZM35.63,18.83c.4.45,1.05.84,1.96,1.16v-5.32c-.74.12-1.35.37-1.83.77s-.73.96-.73,1.7c0,.68.2,1.24.59,1.68ZM39.6,24.55v5.67c.77-.16,1.4-.47,1.87-.93.47-.46.71-1.07.71-1.83,0-.66-.2-1.22-.61-1.67s-1.07-.87-1.98-1.24Z"/>
        <path class="cls-1" d="M39.91,35.03h-2.62v-1.04c-1.07-.07-2.13-.24-3.18-.5-1.16-.29-2.18-.72-3.02-1.28l-.16-.1.52-4.17.41.28c1.57,1.05,3.39,1.65,5.42,1.79v-5.97c-2.16-.75-3.75-1.63-4.74-2.62-1.04-1.04-1.57-2.39-1.57-4.02,0-1.28.3-2.38.89-3.29.58-.9,1.38-1.62,2.38-2.14.91-.47,1.93-.79,3.03-.94v-1.58h2.62v1.51c.74.07,1.57.22,2.44.45,1,.26,1.92.63,2.72,1.11l.18.11-.73,3.98-.37-.21c-1.31-.75-2.74-1.22-4.25-1.41v5.46c2.26.77,3.9,1.69,4.88,2.71,1.04,1.08,1.57,2.48,1.57,4.16,0,1.25-.29,2.36-.87,3.3-.58.93-1.39,1.69-2.41,2.26-.94.52-2,.86-3.17,1.02v1.14ZM37.9,34.42h1.4v-1.08l.27-.03c1.19-.13,2.27-.46,3.21-.98.93-.51,1.67-1.2,2.19-2.05.52-.84.78-1.84.78-2.98,0-1.52-.47-2.78-1.4-3.74-.95-.98-2.58-1.86-4.85-2.62l-.21-.07v-6.57l.33.03c1.58.15,3.08.59,4.46,1.31l.49-2.71c-.71-.4-1.51-.71-2.38-.94-.95-.25-1.83-.4-2.62-.45l-.28-.02v-1.47h-1.4v1.51l-.27.03c-1.14.13-2.17.44-3.09.91-.9.47-1.62,1.12-2.15,1.93-.53.81-.79,1.8-.79,2.96,0,1.48.46,2.65,1.39,3.59.95.95,2.53,1.81,4.71,2.54l.21.07v7.05h-.32c-2.1-.11-3.99-.66-5.64-1.66l-.35,2.82c.75.47,1.65.84,2.67,1.09,1.1.27,2.23.44,3.36.5h.29v1.02ZM39.3,30.6v-6.49l.42.17c.95.39,1.65.83,2.09,1.32.46.51.69,1.14.69,1.87,0,.84-.27,1.53-.8,2.05-.51.5-1.2.85-2.03,1.01l-.36.07ZM39.91,25.02v4.82c.55-.16,1-.41,1.36-.76.42-.41.62-.93.62-1.61,0-.59-.17-1.07-.53-1.47-.31-.35-.79-.68-1.44-.98ZM37.9,20.42l-.41-.15c-.95-.34-1.65-.76-2.09-1.25h0c-.45-.5-.67-1.14-.67-1.89,0-.83.28-1.48.84-1.94.53-.43,1.19-.71,1.98-.84l.35-.05v6.11ZM35.86,18.63c.3.34.78.65,1.43.92v-4.5c-.53.13-.97.34-1.33.63-.41.34-.61.82-.61,1.47,0,.61.17,1.09.52,1.48h0Z"/>
      </g>
    </g>
  </g>
</svg>