<?xml version="1.0" encoding="UTF-8"?>
<svg id="Layer_2" data-name="Layer 2" xmlns="http://www.w3.org/2000/svg" viewBox="0 0 60.38 76.96">
  <defs>
    <style>
      .cls-1 {
        fill: #174fa3;
      }

      .cls-2 {
        fill: #3b6aff;
      }
    </style>
  </defs>
  <g id="Layer_1-2" data-name="Layer 1">
    <g>
      <rect class="cls-2" x="50.97" y="16.7" width="9.18" height="3.37" transform="translate(-1.74 30.26) rotate(-30.01)"/>
      <rect class="cls-2" x="28.5" width="3.37" height="9.18"/>
      <rect class="cls-2" x="13.46" y="3.58" width="3.37" height="9.18" transform="translate(-2.06 8.67) rotate(-30)"/>
      <rect class="cls-2" x="3.13" y="13.8" width="3.37" height="9.18" transform="translate(-13.52 13.37) rotate(-60)"/>
      <rect class="cls-1" x="19.8" y="58" width="20.76" height="3.37"/>
      <rect class="cls-1" x="19.8" y="62.65" width="20.76" height="3.37"/>
      <rect class="cls-1" x="19.8" y="67.3" width="20.76" height="3.37"/>
      <rect class="cls-2" x="40.73" y="6.39" width="9.18" height="3.37" transform="translate(15.66 43.28) rotate(-59.99)"/>
      <g>
        <path class="cls-1" d="M36.98,72.12c-.27,1.16-.85,2.16-1.63,2.96-1.46,1.49-3.64,2.21-5.82,1.73-1.41-.31-2.62-1.08-3.48-2.11-.73-.87-1.22-1.93-1.39-3.08l12.32.5Z"/>
        <path class="cls-2" d="M44.64,47.95c-1.82,1.85-4.47,6.59-5.48,8.07h-7.41l-9.94.25c-.87-1.92-2.69-4.92-6.09-8.32-7.98-7.98-7.98-20.95,0-28.93,3.87-3.87,8.99-5.99,14.48-5.99s10.61,2.12,14.45,5.99c7.98,7.98,7.98,20.95,0,28.93Z"/>
      </g>
    </g>
  </g>
</svg>