<?xml version="1.0" encoding="UTF-8"?>
<svg id="Layer_2" data-name="Layer 2" xmlns="http://www.w3.org/2000/svg" viewBox="0 0 85.56 57.86">
  <defs>
    <style>
      .cls-1 {
        fill: #174fa3;
      }

      .cls-2 {
        fill: none;
      }

      .cls-3 {
        fill: #3b6aff;
      }
    </style>
  </defs>
  <g id="Layer_1-2" data-name="Layer 1">
    <g>
      <polygon class="cls-2" points="5.74 43.05 5.42 43.05 5.42 43.37 5.42 48.79 5.42 49.11 5.74 49.11 51.21 49.11 51.53 49.11 51.53 48.79 51.53 43.37 51.53 43.05 51.21 43.05 5.74 43.05"/>
      <path class="cls-3" d="M69.4,16.8v4.4h-10.09v-8.75H3.38c-2.93,0-3.38,2.31-3.38,3.01v35.7c0,.97.32,1.66,1.02,2.36.32.32,1.34.64,2.04.64h56.25v-8.43h10.09v4.08l16.16,8.05V8.75l-16.16,8.05ZM51.53,43.37v5.74H5.42v-6.07h46.11v.32Z"/>
      <path class="cls-1" d="M47.57,0H14.33c-1.78,0-3.22,1.44-3.22,3.22v2.3c0,1.78,1.44,3.22,3.22,3.22h29.15v3.7h8.42V4.33c0-2.39-1.94-4.33-4.33-4.33Z"/>
    </g>
  </g>
</svg>