<?xml version="1.0" encoding="UTF-8"?>
<svg id="Layer_2" data-name="Layer 2" xmlns="http://www.w3.org/2000/svg" viewBox="0 0 68.99 82.31">
  <defs>
    <style>
      .cls-1 {
        fill: #3b6aff;
      }

      .cls-1, .cls-2 {
        fill-rule: evenodd;
      }

      .cls-2 {
        fill: #174fa3;
      }
    </style>
  </defs>
  <g id="Layer_1-2" data-name="Layer 1">
    <g id="Layer_1-3" data-name="Layer_1">
      <path class="cls-1" d="M44.54,35.03c.17.48.24,1.23.24,2.28,0,.94-.07,1.67-.19,2.15-.17.56-.43.85-.8.85-.34,0-.58-.24-.75-.73-.17-.48-.24-1.26-.24-2.28,0-.94.07-1.67.19-2.13.17-.58.43-.87.8-.87.34,0,.58.24.75.73Z"/>
      <path class="cls-1" d="M34.1,38.72c-.21-.21-.46-.32-.81-.32-.32,0-.6.12-.81.32-.21.21-.32.48-.32.83,0,.32.12.58.32.81.21.21.48.32.81.32.35,0,.6-.12.81-.32.23-.23.32-.48.32-.81,0-.35-.09-.62-.32-.83ZM49.26,28.58c-.14-.14-.32-.21-.55-.21-.21,0-.39.07-.53.21-.14.14-.21.32-.21.53,0,.23.07.42.21.55.14.14.32.21.53.21.23,0,.42-.07.55-.21.12-.14.21-.32.21-.55,0-.21-.09-.39-.21-.53ZM49.26,28.58c-.14-.14-.32-.21-.55-.21-.21,0-.39.07-.53.21-.14.14-.21.32-.21.53,0,.23.07.42.21.55.14.14.32.21.53.21.23,0,.42-.07.55-.21.12-.14.21-.32.21-.55,0-.21-.09-.39-.21-.53ZM34.1,38.72c-.21-.21-.46-.32-.81-.32-.32,0-.6.12-.81.32-.21.21-.32.48-.32.83,0,.32.12.58.32.81.21.21.48.32.81.32.35,0,.6-.12.81-.32.23-.23.32-.48.32-.81,0-.35-.09-.62-.32-.83ZM14.72,22.99v28.32h9.95v9.77c0,.51.42.92.92.92.23,0,.48-.09.65-.28l10.37-10.42h18.55v-28.32H14.72ZM26.55,41.59c-.39.58-.95,1.02-1.64,1.34-.72.32-1.55.49-2.54.49-.72,0-1.36-.07-1.99-.18-.62-.14-1.13-.32-1.55-.58l.28-2.7c.46.23.95.42,1.45.53.53.14,1.02.21,1.5.21s.88-.12,1.15-.3.42-.46.42-.79c0-.35-.12-.6-.37-.79-.25-.18-.62-.28-1.11-.28-.21,0-.39.02-.55.02-.18.02-.32.05-.46.12l-.78-1.78,2.38-2.31h-3.63v-2.68h7.6v2.29l-2.29,2.19c.51.07.99.23,1.39.53.42.28.74.65.97,1.09.23.46.35.95.35,1.52,0,.79-.18,1.48-.58,2.06ZM37.2,41.54c-.37.58-.88,1.04-1.55,1.39-.65.32-1.41.49-2.26.49-1.45,0-2.59-.37-3.4-1.13-.83-.76-1.22-1.82-1.22-3.16,0-.83.16-1.66.48-2.52.32-.85.81-1.69,1.41-2.49.62-.81,1.36-1.55,2.22-2.24l4.04.12c-.97.81-1.8,1.55-2.45,2.24-.67.69-1.2,1.36-1.59,2.01.18-.12.37-.18.6-.23.21-.05.44-.09.72-.09.67,0,1.29.16,1.82.46.53.32.95.74,1.27,1.27.3.55.46,1.15.46,1.87,0,.76-.18,1.43-.55,2.03ZM47.92,38.54c-.02.32-.07.62-.12.92-.23,1.27-.74,2.24-1.5,2.93-.76.67-1.73,1.02-2.91,1.02-1.45,0-2.59-.51-3.37-1.55-.81-1.02-1.2-2.47-1.2-4.32,0-.35,0-.69.02-.99.05-.32.09-.62.14-.9.23-1.27.72-2.26,1.5-2.93.76-.69,1.73-1.04,2.91-1.04,1.46,0,2.59.51,3.37,1.55.81,1.02,1.2,2.45,1.2,4.32,0,.35,0,.67-.05.99ZM50.76,30.27c-.18.35-.46.6-.83.79-.35.21-.74.3-1.22.3-.44,0-.85-.09-1.2-.3-.37-.18-.65-.44-.85-.79-.18-.35-.3-.72-.3-1.15,0-.42.12-.81.3-1.13.21-.35.48-.6.85-.79.35-.21.76-.3,1.2-.3.48,0,.88.09,1.22.3.37.18.65.44.83.79.21.32.32.72.32,1.13,0,.44-.12.81-.32,1.15ZM48.7,28.38c-.21,0-.39.07-.53.21-.14.14-.21.32-.21.53,0,.23.07.42.21.55.14.14.32.21.53.21.23,0,.42-.07.55-.21.12-.14.21-.32.21-.55,0-.21-.09-.39-.21-.53-.14-.14-.32-.21-.55-.21ZM33.3,38.4c-.32,0-.6.12-.81.32-.21.21-.32.48-.32.83,0,.32.12.58.32.81.21.21.48.32.81.32.35,0,.6-.12.81-.32.23-.23.32-.48.32-.81,0-.35-.09-.62-.32-.83-.21-.21-.46-.32-.81-.32ZM49.26,28.58c-.14-.14-.32-.21-.55-.21-.21,0-.39.07-.53.21-.14.14-.21.32-.21.53,0,.23.07.42.21.55.14.14.32.21.53.21.23,0,.42-.07.55-.21.12-.14.21-.32.21-.55,0-.21-.09-.39-.21-.53ZM49.26,28.58c-.14-.14-.32-.21-.55-.21-.21,0-.39.07-.53.21-.14.14-.21.32-.21.53,0,.23.07.42.21.55.14.14.32.21.53.21.23,0,.42-.07.55-.21.12-.14.21-.32.21-.55,0-.21-.09-.39-.21-.53Z"/>
      <path class="cls-2" d="M34.4,17.62c-2.44,0,3.64-18.87,4.95-17.56l11.64,11.64c.52.53.28,1.43-.43,1.62l-16.16,4.29Z"/>
      <path class="cls-2" d="M61.41,19.47c-1.45-1.79-4.21.41-2.76,2.23,11.76,14.69,7.96,36.82-9.1,46.33-5.54,3.1-10.58,4.7-15.71,4.41-3.58-.17-7.21-1.28-11.09-3.44-2.06-1.14-3.78,1.98-1.72,3.12,4.65,2.57,7.19,3.29,12.01,3.39h.02c.46.02.92.02,1.43.02v.02c19.03,0,34.49-15.49,34.49-34.52,0-7.79-2.69-15.47-7.58-21.57ZM48.17,10.03c-4.14-2.28-8.11-3.51-12.03-3.82-6.29-.53-12.49,1.31-19,5.08C-1.4,22.06-5.39,46.41,7.58,62.6c.34.44.85.68,1.38.68,1.48,0,2.3-1.72,1.38-2.88C-1.33,45.83,2.3,23.92,19.03,14.29c5.57-3.22,10.77-4.89,16.05-4.62,3.7.19,7.43,1.31,11.38,3.49,2.06,1.11,3.75-1.98,1.72-3.12Z"/>
      <path class="cls-2" d="M30.34,82.31c-.25,0-.49-.09-.68-.28l-11.64-11.64c-.52-.52-.28-1.43.43-1.62l15.9-4.26c2.01-.55-2.55,17.81-4.01,17.81h0Z"/>
    </g>
  </g>
</svg>