<?xml version="1.0" encoding="UTF-8"?>
<svg id="Layer_1" data-name="Layer 1" xmlns="http://www.w3.org/2000/svg" xmlns:xlink="http://www.w3.org/1999/xlink" viewBox="0 0 1920 166.98">
  <defs>
    <style>
      .cls-1 {
        fill: url(#New_Pattern_2);
        opacity: .7;
      }

      .cls-2 {
        fill: none;
      }

      .cls-3 {
        fill: #05142b;
      }

      .cls-4 {
        fill: #3b6aff;
      }
    </style>
    <pattern id="New_Pattern_2" data-name="New Pattern 2" x="0" y="0" width="155.91" height="136.06" patternTransform="translate(5546.45 1086.4) scale(1.52)" patternUnits="userSpaceOnUse" viewBox="0 0 155.91 136.06">
      <g>
        <rect class="cls-2" x="0" width="155.91" height="136.06"/>
        <g>
          <polygon class="cls-3" points="10.03 120.96 .38 120.96 .38 137.91 7.52 137.91 7.52 151.17 29.49 151.17 29.49 137.91 36.63 137.91 36.63 120.96 26.98 120.96 10.03 120.96"/>
          <polygon class="cls-3" points="99.66 125.43 95.17 120.96 79.28 120.96 79.28 151.17 95.17 151.17 95.17 146.68 99.66 151.17 115.54 151.17 115.54 120.96 99.66 120.96 99.66 125.43"/>
          <path class="cls-3" d="M140.42,120.96c-.18,0-.36.02-.54.03v-.03h-20.61v30.21h20.61v-.03c.18,0,.36.03.54.03,8.34,0,15.11-6.76,15.11-15.11s-6.76-15.11-15.11-15.11Z"/>
          <path class="cls-3" d="M76.62,136.06c0-8.34-6.76-15.11-15.11-15.11h-21.15v30.21h33.06l-1.99-3.73c3.17-2.77,5.19-6.83,5.19-11.37Z"/>
        </g>
        <g>
          <polygon class="cls-3" points="87.98 86.94 78.33 86.94 78.33 103.89 85.48 103.89 85.48 117.15 107.44 117.15 107.44 103.89 114.59 103.89 114.59 86.94 104.93 86.94 87.98 86.94"/>
          <path class="cls-3" d="M154.57,102.05c0-8.34-6.76-15.11-15.11-15.11h-21.15v30.21h33.06l-1.99-3.73c3.17-2.77,5.19-6.83,5.19-11.37Z"/>
        </g>
        <g>
          <polygon class="cls-3" points="21.71 91.41 17.22 86.94 1.33 86.94 1.33 117.15 17.22 117.15 17.22 112.66 21.71 117.15 37.59 117.15 37.59 86.94 21.71 86.94 21.71 91.41"/>
          <path class="cls-3" d="M62.47,86.94c-.18,0-.36.02-.54.03v-.03h-20.61v30.21h20.61v-.03c.18,0,.36.03.54.03,8.34,0,15.11-6.76,15.11-15.11s-6.76-15.11-15.11-15.11Z"/>
        </g>
        <g>
          <polygon class="cls-3" points="10.03 52.93 .38 52.93 .38 69.87 7.52 69.87 7.52 83.14 29.49 83.14 29.49 69.87 36.63 69.87 36.63 52.93 26.98 52.93 10.03 52.93"/>
          <polygon class="cls-3" points="99.66 57.4 95.17 52.93 79.28 52.93 79.28 83.14 95.17 83.14 95.17 78.65 99.66 83.14 115.54 83.14 115.54 52.93 99.66 52.93 99.66 57.4"/>
          <path class="cls-3" d="M140.42,52.93c-.18,0-.36.02-.54.03v-.03h-20.61v30.21h20.61v-.03c.18,0,.36.03.54.03,8.34,0,15.11-6.76,15.11-15.11s-6.76-15.11-15.11-15.11Z"/>
          <path class="cls-3" d="M76.62,68.03c0-8.34-6.76-15.11-15.11-15.11h-21.15v30.21h33.06l-1.99-3.73c3.17-2.77,5.19-6.83,5.19-11.37Z"/>
        </g>
        <g>
          <polygon class="cls-3" points="87.98 18.91 78.33 18.91 78.33 35.86 85.48 35.86 85.48 49.12 107.44 49.12 107.44 35.86 114.59 35.86 114.59 18.91 104.93 18.91 87.98 18.91"/>
          <path class="cls-3" d="M154.57,34.02c0-8.34-6.76-15.11-15.11-15.11h-21.15v30.21h33.06l-1.99-3.73c3.17-2.77,5.19-6.83,5.19-11.37Z"/>
        </g>
        <g>
          <polygon class="cls-3" points="21.71 23.38 17.22 18.91 1.33 18.91 1.33 49.12 17.22 49.12 17.22 44.63 21.71 49.12 37.59 49.12 37.59 18.91 21.71 18.91 21.71 23.38"/>
          <path class="cls-3" d="M62.47,18.91c-.18,0-.36.02-.54.03v-.03h-20.61v30.21h20.61v-.03c.18,0,.36.03.54.03,8.34,0,15.11-6.76,15.11-15.11s-6.76-15.11-15.11-15.11Z"/>
        </g>
        <g>
          <polygon class="cls-3" points="10.03 -15.11 .38 -15.11 .38 1.84 7.52 1.84 7.52 15.11 29.49 15.11 29.49 1.84 36.63 1.84 36.63 -15.11 26.98 -15.11 10.03 -15.11"/>
          <polygon class="cls-3" points="99.66 -10.63 95.17 -15.11 79.28 -15.11 79.28 15.11 95.17 15.11 95.17 10.62 99.66 15.11 115.54 15.11 115.54 -15.11 99.66 -15.11 99.66 -10.63"/>
          <path class="cls-3" d="M140.42-15.11c-.18,0-.36.02-.54.03v-.03h-20.61V15.11h20.61v-.03c.18,0,.36.03.54.03,8.34,0,15.11-6.76,15.11-15.11s-6.76-15.11-15.11-15.11Z"/>
          <path class="cls-3" d="M76.62,0c0-8.34-6.76-15.11-15.11-15.11h-21.15V15.11h33.06l-1.99-3.73c3.17-2.77,5.19-6.83,5.19-11.37Z"/>
        </g>
      </g>
    </pattern>
  </defs>
  <rect class="cls-4" x="0" width="1920" height="166.98"/>
  <rect class="cls-1" x="0" width="1920" height="166.98"/>
</svg>