<?xml version="1.0" encoding="UTF-8"?>
<svg id="Layer_1" data-name="Layer 1" xmlns="http://www.w3.org/2000/svg" viewBox="0 0 1920 1080">
  <defs>
    <style>
      .cls-1 {
        fill: #fff;
      }
    </style>
  </defs>
  <polygon class="cls-1" points="1181.76 371.61 1181.76 373.83 1181.76 410.09 1220.42 410.09 1220.42 373.14 1220.42 371.61 1181.76 371.61"/>
  <rect class="cls-1" x="869.15" y="555.58" width="38.65" height="38.48" transform="translate(-146.23 796.61) rotate(-45)"/>
  <path class="cls-1" d="M686.89,700.13c0-5.41,4.14-9.32,9.71-9.32,2.95,0,5.49,1.06,7.18,3.02l-2.18,2.05c-1.32-1.43-2.95-2.12-4.85-2.12-3.75,0-6.47,2.63-6.47,6.36s2.72,6.37,6.47,6.37c1.89,0,3.52-.7,4.85-2.15l2.18,2.08c-1.69,1.96-4.22,3.02-7.2,3.02-5.54,0-9.68-3.91-9.68-9.32"/>
  <path class="cls-1" d="M718.26,700.13c0-5.36,4.14-9.32,9.75-9.32s9.76,3.93,9.76,9.32-4.14,9.32-9.76,9.32-9.75-3.96-9.75-9.32M734.39,700.13c0-3.7-2.72-6.36-6.37-6.36s-6.36,2.66-6.36,6.36,2.72,6.37,6.36,6.37,6.37-2.67,6.37-6.37"/>
  <polygon class="cls-1" points="770.39 691.07 770.39 709.19 767.62 709.19 757.62 696.92 757.62 709.19 754.28 709.19 754.28 691.07 757.06 691.07 767.05 703.34 767.05 691.07 770.39 691.07"/>
  <path class="cls-1" d="M786.66,707.28l1.17-2.61c1.45,1.17,3.75,1.99,5.98,1.99,2.83,0,4.02-1.01,4.02-2.36,0-3.91-10.77-1.34-10.77-8.07,0-2.92,2.33-5.41,7.3-5.41,2.18,0,4.46.57,6.03,1.6l-1.06,2.61c-1.63-.95-3.42-1.42-4.99-1.42-2.8,0-3.93,1.09-3.93,2.46,0,3.86,10.74,1.35,10.74,8,0,2.9-2.36,5.39-7.33,5.39-2.82,0-5.64-.88-7.14-2.18"/>
  <path class="cls-1" d="M817.25,701.3v-10.23h3.36v10.1c0,3.72,1.69,5.33,4.61,5.33s4.58-1.61,4.58-5.33v-10.1h3.31v10.23c0,5.28-2.98,8.15-7.93,8.15s-7.95-2.87-7.95-8.15"/>
  <polygon class="cls-1" points="850.77 691.07 854.13 691.07 854.13 706.34 863.61 706.34 863.61 709.19 850.77 709.19 850.77 691.07"/>
  <polygon class="cls-1" points="881.21 693.92 875.2 693.92 875.2 691.07 890.58 691.07 890.58 693.92 884.57 693.92 884.57 709.19 881.21 709.19 881.21 693.92"/>
  <rect class="cls-1" x="906.05" y="691.08" width="3.36" height="18.12"/>
  <polygon class="cls-1" points="943.35 691.07 943.35 709.19 940.58 709.19 930.58 696.92 930.58 709.19 927.24 709.19 927.24 691.07 930.02 691.07 940.01 703.34 940.01 691.07 943.35 691.07"/>
  <path class="cls-1" d="M973.52,699.93h3.19v7.23c-1.89,1.53-4.53,2.3-7.09,2.3-5.62,0-9.76-3.91-9.76-9.32s4.14-9.32,9.81-9.32c3.03,0,5.57,1.01,7.28,2.95l-2.13,2.07c-1.42-1.43-3.05-2.07-4.99-2.07-3.86,0-6.58,2.61-6.58,6.36s2.72,6.37,6.55,6.37c1.3,0,2.56-.26,3.73-.93v-5.64Z"/>
  <path class="cls-1" d="M1012.63,707.28l1.17-2.61c1.45,1.17,3.75,1.99,5.98,1.99,2.83,0,4.02-1.01,4.02-2.36,0-3.91-10.77-1.34-10.77-8.07,0-2.92,2.33-5.41,7.3-5.41,2.18,0,4.46.57,6.03,1.6l-1.06,2.61c-1.63-.95-3.42-1.42-4.99-1.42-2.8,0-3.93,1.09-3.93,2.46,0,3.86,10.74,1.35,10.74,8,0,2.9-2.36,5.39-7.33,5.39-2.82,0-5.64-.88-7.14-2.18"/>
  <polygon class="cls-1" points="1056.96 706.37 1056.96 709.19 1043.37 709.19 1043.37 691.07 1056.6 691.07 1056.6 693.9 1046.73 693.9 1046.73 698.6 1055.49 698.6 1055.49 701.38 1046.73 701.38 1046.73 706.37 1056.96 706.37"/>
  <path class="cls-1" d="M1085.51,709.19l-3.7-5.3c-.23.03-.47.03-.7.03h-4.09v5.28h-3.37v-18.12h7.46c4.76,0,7.71,2.43,7.71,6.44,0,2.75-1.4,4.77-3.86,5.72l4.17,5.95h-3.62ZM1080.95,693.92h-3.93v7.23h3.93c2.95,0,4.48-1.35,4.48-3.63s-1.53-3.6-4.48-3.6"/>
  <polygon class="cls-1" points="1122.08 691.07 1114.18 709.19 1110.87 709.19 1102.95 691.07 1106.6 691.07 1112.63 705.05 1118.72 691.07 1122.08 691.07"/>
  <rect class="cls-1" x="1136.93" y="691.08" width="3.36" height="18.12"/>
  <path class="cls-1" d="M1156.83,700.13c0-5.41,4.14-9.32,9.71-9.32,2.95,0,5.49,1.06,7.18,3.02l-2.18,2.05c-1.32-1.43-2.95-2.12-4.85-2.12-3.75,0-6.47,2.63-6.47,6.36s2.72,6.37,6.47,6.37c1.89,0,3.52-.7,4.85-2.15l2.18,2.08c-1.69,1.96-4.22,3.02-7.2,3.02-5.54,0-9.68-3.91-9.68-9.32"/>
  <polygon class="cls-1" points="1203.47 706.37 1203.47 709.19 1189.88 709.19 1189.88 691.07 1203.11 691.07 1203.11 693.9 1193.24 693.9 1193.24 698.6 1202 698.6 1202 701.38 1193.24 701.38 1193.24 706.37 1203.47 706.37"/>
  <path class="cls-1" d="M1218.64,707.28l1.17-2.61c1.45,1.17,3.75,1.99,5.98,1.99,2.83,0,4.02-1.01,4.02-2.36,0-3.91-10.77-1.34-10.77-8.07,0-2.92,2.33-5.41,7.3-5.41,2.18,0,4.46.57,6.03,1.6l-1.06,2.61c-1.63-.95-3.42-1.42-4.99-1.42-2.8,0-3.93,1.09-3.93,2.46,0,3.86,10.74,1.35,10.74,8,0,2.9-2.36,5.39-7.33,5.39-2.82,0-5.64-.88-7.14-2.18"/>
  <rect class="cls-1" x="687.42" y="563.37" width="38.48" height="38.65"/>
  <path class="cls-1" d="M686.89,645.34h9.63c5.68,0,9.34,2.92,9.34,7.9v.06c0,5.3-4.08,8.09-9.66,8.09h-3.08v6.42h-6.23v-22.48ZM696.07,656.52c2.21,0,3.56-1.16,3.56-2.92v-.06c0-1.92-1.35-2.95-3.59-2.95h-2.92v5.94h2.95Z"/>
  <path class="cls-1" d="M711.18,656.65v-.06c0-6.46,5.2-11.69,12.14-11.69s12.07,5.17,12.07,11.63v.06c0,6.46-5.2,11.69-12.14,11.69s-12.07-5.17-12.07-11.63M729.03,656.65v-.06c0-3.24-2.35-6.07-5.78-6.07s-5.69,2.76-5.69,6v.06c0,3.24,2.35,6.07,5.75,6.07s5.71-2.76,5.71-6"/>
  <path class="cls-1" d="M740.22,664.48l3.47-4.14c2.21,1.77,4.68,2.69,7.29,2.69,1.67,0,2.56-.57,2.56-1.54v-.06c0-.93-.73-1.44-3.79-2.15-4.78-1.09-8.48-2.44-8.48-7.06v-.06c0-4.18,3.31-7.2,8.7-7.2,3.81,0,6.8,1.03,9.25,2.99l-3.12,4.4c-2.06-1.45-4.3-2.22-6.29-2.22-1.51,0-2.25.64-2.25,1.45v.06c0,1.02.77,1.48,3.89,2.18,5.16,1.12,8.38,2.79,8.38,7v.06c0,4.59-3.62,7.32-9.08,7.32-3.98,0-7.77-1.25-10.53-3.72"/>
  <rect class="cls-1" x="766.43" y="645.35" width="6.26" height="22.48"/>
  <polygon class="cls-1" points="785.74 650.8 778.99 650.8 778.99 645.34 798.71 645.34 798.71 650.8 791.97 650.8 791.97 667.82 785.74 667.82 785.74 650.8"/>
  <rect class="cls-1" x="805.01" y="645.35" width="6.26" height="22.48"/>
  <polygon class="cls-1" points="817.03 645.35 824 645.35 829.1 659.57 834.21 645.35 841.05 645.35 831.93 667.98 826.15 667.98 817.03 645.35"/>
  <polygon class="cls-1" points="846.68 645.35 864.76 645.35 864.76 650.64 852.85 650.64 852.85 654.05 863.63 654.05 863.63 658.96 852.85 658.96 852.85 662.52 864.92 662.52 864.92 667.82 846.68 667.82 846.68 645.35"/>
  <path class="cls-1" d="M882.18,664.48l3.47-4.14c2.21,1.77,4.68,2.69,7.29,2.69,1.67,0,2.56-.57,2.56-1.54v-.06c0-.93-.73-1.44-3.79-2.15-4.78-1.09-8.48-2.44-8.48-7.06v-.06c0-4.18,3.31-7.2,8.7-7.2,3.81,0,6.8,1.03,9.25,2.99l-3.11,4.4c-2.06-1.45-4.3-2.22-6.29-2.22-1.51,0-2.25.64-2.25,1.45v.06c0,1.02.77,1.48,3.88,2.18,5.16,1.12,8.38,2.79,8.38,7v.06c0,4.59-3.62,7.32-9.08,7.32-3.98,0-7.77-1.25-10.53-3.72"/>
  <rect class="cls-1" x="908.4" y="645.35" width="6.26" height="22.48"/>
  <path class="cls-1" d="M922.21,645.35h8.67c8.03,0,12.69,4.63,12.69,11.11v.06c0,6.48-4.72,11.3-12.81,11.3h-8.54v-22.48ZM930.97,662.3c3.72,0,6.19-2.06,6.19-5.68v-.07c0-3.6-2.47-5.68-6.19-5.68h-2.54v11.43h2.54Z"/>
  <polygon class="cls-1" points="950.22 645.35 968.3 645.35 968.3 650.64 956.39 650.64 956.39 654.05 967.18 654.05 967.18 658.96 956.39 658.96 956.39 662.52 968.46 662.52 968.46 667.82 950.22 667.82 950.22 645.35"/>
  <path class="cls-1" d="M986.65,656.65v-.06c0-6.55,5.04-11.69,11.85-11.69,4.59,0,7.55,1.93,9.54,4.69l-4.68,3.63c-1.29-1.61-2.76-2.63-4.92-2.63-3.15,0-5.36,2.66-5.36,5.94v.06c0,3.37,2.21,6,5.36,6,2.35,0,3.73-1.09,5.07-2.73l4.69,3.34c-2.12,2.92-4.98,5.08-9.95,5.08-6.42,0-11.59-4.92-11.59-11.63"/>
  <path class="cls-1" d="M1012.9,656.65v-.06c0-6.46,5.2-11.69,12.14-11.69s12.07,5.17,12.07,11.63v.06c0,6.46-5.2,11.69-12.14,11.69s-12.07-5.17-12.07-11.63M1030.75,656.65v-.06c0-3.24-2.35-6.07-5.78-6.07s-5.69,2.76-5.69,6v.06c0,3.24,2.35,6.07,5.75,6.07s5.71-2.76,5.71-6"/>
  <polygon class="cls-1" points="1043.8 645.35 1049.62 645.35 1058.86 657.23 1058.86 645.35 1065.03 645.35 1065.03 667.82 1059.57 667.82 1049.97 655.49 1049.97 667.82 1043.8 667.82 1043.8 645.35"/>
  <path class="cls-1" d="M1070.76,664.48l3.47-4.14c2.21,1.77,4.68,2.69,7.29,2.69,1.67,0,2.56-.57,2.56-1.54v-.06c0-.93-.73-1.44-3.79-2.15-4.79-1.09-8.48-2.44-8.48-7.06v-.06c0-4.18,3.31-7.2,8.7-7.2,3.81,0,6.8,1.03,9.25,2.99l-3.11,4.4c-2.06-1.45-4.3-2.22-6.29-2.22-1.51,0-2.25.64-2.25,1.45v.06c0,1.02.77,1.48,3.88,2.18,5.16,1.12,8.38,2.79,8.38,7v.06c0,4.59-3.62,7.32-9.08,7.32-3.98,0-7.77-1.25-10.53-3.72"/>
  <path class="cls-1" d="M1096.56,657.96v-12.62h6.32v12.49c0,3.24,1.64,4.78,4.15,4.78s4.14-1.48,4.14-4.62v-12.65h6.33v12.45c0,7.26-4.15,10.44-10.53,10.44s-10.4-3.25-10.4-10.28"/>
  <polygon class="cls-1" points="1124.63 645.35 1130.86 645.35 1130.86 662.36 1141.75 662.36 1141.75 667.82 1124.63 667.82 1124.63 645.35"/>
  <polygon class="cls-1" points="1150.14 650.8 1143.39 650.8 1143.39 645.34 1163.11 645.34 1163.11 650.8 1156.37 650.8 1156.37 667.82 1150.14 667.82 1150.14 650.8"/>
  <rect class="cls-1" x="1169.42" y="645.35" width="6.26" height="22.48"/>
  <polygon class="cls-1" points="1183.23 645.35 1189.04 645.35 1198.29 657.23 1198.29 645.35 1204.45 645.35 1204.45 667.82 1198.99 667.82 1189.39 655.49 1189.39 667.82 1183.23 667.82 1183.23 645.35"/>
  <path class="cls-1" d="M1211.12,656.65v-.06c0-6.55,5.14-11.69,12.11-11.69,3.94,0,6.74,1.22,9.12,3.28l-3.67,4.4c-1.6-1.35-3.21-2.12-5.42-2.12-3.24,0-5.74,2.73-5.74,6.17v.06c0,3.62,2.54,6.22,6.1,6.22,1.51,0,2.66-.32,3.6-.93v-2.73h-4.43v-4.56h10.33v10.12c-2.37,1.96-5.68,3.47-9.75,3.47-7,0-12.23-4.82-12.23-11.63"/>
  <path class="cls-1" d="M745.14,524.71h-57.72v-38.65h57.72c21.17,0,38.4-17.23,38.4-38.4s-17.23-38.4-38.4-38.4h-57.72v-38.65h57.72c42.49,0,77.05,34.56,77.05,77.05s-34.56,77.05-77.05,77.05"/>
  <path class="cls-1" d="M988.4,502.14l-29.72,29.72c-2.09-14.18-14.35-25.1-29.1-25.1h-.28c-37.48,0-67.97-30.49-67.97-67.97v-.27c0-37.49,30.49-67.98,67.97-67.98,18.66,0,36.46,7.68,49.26,21.13l-27.29,27.29c-5.58-6.27-13.58-9.86-21.98-9.86-16.22,0-29.41,13.2-29.41,29.42v.27c0,8.65,3.76,16.45,9.73,21.83,5.22,4.71,12.12,7.58,19.69,7.58h.28c25.08,0,47.04,13.66,58.82,33.93"/>
  <path class="cls-1" d="M1204.74,528.35c-13.61,20.4-36.84,33.86-63.15,33.86-41.85,0-75.89-34.05-75.89-75.89s34.04-75.89,75.89-75.89v-38.82c-15.48,0-30.5,3.04-44.66,9.02-13.66,5.78-25.92,14.05-36.46,24.58-10.53,10.52-18.8,22.79-24.57,36.45-5.99,14.16-9.02,29.18-9.02,44.66s3.03,30.5,9.02,44.66c5.78,13.66,14.04,25.92,24.57,36.46,10.53,10.52,22.79,18.8,36.46,24.57,14.16,5.98,29.17,9.02,44.66,9.02s30.5-3.04,44.65-9.02c13.66-5.78,25.93-14.05,36.46-24.57,3.55-3.55,6.85-7.3,9.87-11.25l-27.83-27.83Z"/>
</svg>