<?xml version="1.0" encoding="UTF-8"?>
<svg id="Layer_1" data-name="Layer 1" xmlns="http://www.w3.org/2000/svg" viewBox="0 0 1920 1080">
  <defs>
    <style>
      .cls-1 {
        fill: #fff;
      }
    </style>
  </defs>
  <path class="cls-1" d="M1302.68,577.84c-10.22-5.61-10.42-13.37-9.87-16.23.54-2.92,2.53-1.64,3.81-1.64,6.71,0,13.77-1.99,22.47-10.87,9.81-10.02,12.9-32.27-2.18-46.77-16.25-15.64-33.53-12.9-44.68,1.15-2.28,2.88-7.85,4.99-12.68,4.83-7.14-.27-2.65,5.36-2.65,6.52s-1.08,2.01-1.71,1.82c-2.43-.69-1.46,2.9-1.46,3.99s-.99,1.63-1.53,1.63c-3,0-2.17,2.7-2.09,3.46.09.71-.18,1.97-1.18,2.51-.96.54-2.08,2.91-2.08,4.72,0,3.27,2.99,5.52,7.99,9.25,4.96,3.73,5.6,7.26,5.7,9.8.09,2.53.33,6.63,1.46,9.34,1.34,3.25,1.16,9.25-5.72,9.51-8.43.33-23.38,7.07-24.65,7.53-4.76,1.69-11.04,2.29-15.93,1.06-2.64-1.87-5.16-3.91-7.54-6.11-.99-3.39.72-7.02,2.45-9.47,2.81,2.81,6.99,2.63,9.32,2.71,2.36.1,13.87-1.71,15.51-2.25,1.63-.54,2.35-.37,3.34,0,4.4,1.59,10.43,2.07,12.88-6.35,2.45-8.43-3.34-6.08-4.07-5.71-.73.37-1.74.27-1.37-.45,1.08-2.15-.54-1.92-1.45-2.01-2.35-.23-5.43,2.27-6.43,3.17-1.01.91-2,.82-2.36.64-3.13-1.56-12.44.7-15.33-4.35.27-1.35-2.37-21.84-3.7-25.38-.3-.76-.55-1.99.35-3.34,2.37-3.55,8.88.26,12.43.18,4.24-.12,4.91-1.89,6.08-3.32,1.11-1.39,1.92-.61,2.53-.99.77-.5.04-1.51.32-2.04.27-.55.59-.28,1.31-.91.73-.64-.11-1.99.27-2.53,1.04-1.57,3.89-.32,2.19-4.43-.94-2.27.37-4.73,1.63-6.36,2.06-2.65,9.99-13.81-3.99-25.38-13.32-11.05-26.83-10.16-35.53-.73-8.69,9.42-4.36,23.21-3.43,26.83.9,3.63-1.71,6.91-4.72,8.34-2.38,1.13-7.81,4.74-11.91,8.32.65-29.57,18.61-55.58,46.14-66.67,1.16,1.47,2.47,2.85,3.89,4.16-3.08,2.24-9.76,8.22-9.76,8.22,0,0,.91.14,1.76.34.6.14,1.85.52,1.85.52,0,0,5.89-5.01,8.65-7.01,2.15,1.64,4.51,3.01,7,4.1-1.34,2.27-4.7,8.58-4.7,8.58,0,0,.77.46,1.48.93.7.47,1.13.88,1.13.88,0,0,3.66-6.9,5.05-9.21,3.08,1.03,6.29,1.62,9.54,1.76v12.65c-1.8-.04-6.44-.24-8.32-.43l-1.18-.12.66.99c.5.73.88,1.44,1.23,2.11l.13.28.31.02c1.36.11,5.6.26,7.17.3v23.01h3.2v-5.27c4.68-.22,8.57-.54,13.28-.95l.21-.03,4.12-3.66-2.25.2c-4.97.65-9.35.95-13.31,1.17,0,0-1.35.07-2.06.12v-14.61c5.78-.12,11.57-.93,17.23-2.41,1.54,3.79,4.45,13.01,4.45,13.01l3.01-.94s-2.91-9.15-4.44-12.95c4.79-1.48,9.42-3.46,13.8-5.86,3.53,4.35,6.57,9.08,9.09,14.11-2.27,1.05-6.41,2.52-6.41,2.52,3.32.37,5.83,1.15,5.83,1.15,0,0,1.17-.5,1.92-.83.29.65.86,2,.86,2l4.14,1.84-.47-1.16s-1.37-3.27-1.69-4.03c4.38-2.16,8.68-4.63,12.8-7.4,7.83,11.97,11.98,25.88,11.98,40.26,0,23.88-11.42,45.14-29.09,58.61M1250.07,446.03c-4.54,1.98-8.87,4.37-12.96,7.16-1.25-1.11-2.36-2.27-3.41-3.48,5.29-1.86,10.76-3.07,16.37-3.68M1245.64,458.51c-2.11-.89-4.06-1.99-5.9-3.3,4.15-2.74,8.58-5.08,13.25-6.99-2.62,3.27-5.11,6.72-7.36,10.29M1256.48,448.88v12.11c-2.64-.13-5.27-.61-7.82-1.39,2.36-3.69,5-7.27,7.82-10.72M1259.68,464.15c3.3-.16,6.54-.74,9.66-1.78,2.35,3.91,4.46,8,6.3,12.22-5.22,1.34-10.58,2.08-15.96,2.2v-12.64ZM1259.68,448.74c2.82,3.4,5.49,7.04,7.92,10.86-2.57.79-5.23,1.26-7.92,1.39v-12.25ZM1276.56,455.21c-1.86,1.31-3.83,2.42-5.89,3.29-2.23-3.51-4.75-6.95-7.41-10.31,4.65,1.91,9.12,4.26,13.3,7.02M1282.57,449.72c-1.05,1.25-2.17,2.4-3.4,3.47-4.05-2.78-8.37-5.15-12.87-7.12,5.59.6,11.04,1.81,16.27,3.65M1291.64,468.33c-4.12,2.22-8.46,4.03-12.93,5.4-1.87-4.27-4.01-8.47-6.41-12.52,2.49-1.09,4.83-2.44,7.02-4.1,4.49,3.28,8.63,7.05,12.33,11.22M1285.69,450.9c6.13,2.47,11.91,5.79,17.22,9.87-2.64,2.18-5.49,4.18-8.47,5.97-3.77-4.32-8.01-8.24-12.64-11.68,1.4-1.28,2.72-2.67,3.89-4.15M1318,476.37c-3.94,2.66-8.07,5.05-12.36,7.15-2.52-5.07-5.6-9.89-9.16-14.34,3.15-1.92,6.16-4.06,8.94-6.4,4.75,3.99,8.98,8.56,12.59,13.59M1258.11,442.43c-42.35,0-76.8,34.44-76.8,76.8s34.45,76.79,76.8,76.79,76.79-34.45,76.79-76.79-34.46-76.8-76.79-76.8"/>
  <path class="cls-1" d="M1174.36,462.85l-1.2,1.05c-4.51,3.99-14.8,14.52-13.21,26.07,0,.04.16.8.16.8l.51,2.29,1.44-1.31c6.3-5.76,11.03-15.54,12.95-26.82l.55-3.16-1.2,1.08Z"/>
  <path class="cls-1" d="M1153.46,482.79l-.52,1.39c-.71,1.93-2.01,5.98-2.71,11.37-.97,7.62-.75,18.41,5.88,26.46l.73.95.77.98.97-4.9c1.1-8.65-.35-26.79-3.52-34.89l-1.1-2.75-.5,1.38Z"/>
  <path class="cls-1" d="M1145.83,513.98l-.1,1.43c-.55,7.76-.15,26.91,15.36,37.07l1.84,1.18-.08-2.16c-.27-7.28-8.75-28.97-15.12-36.75l-1.8-2.2-.09,1.43Z"/>
  <path class="cls-1" d="M1148.5,548.25l.26,1.31c2.27,11,12.71,28.83,28.82,34l2.21.71-.8-2.18c-3.01-8.23-18.54-27.41-28.52-33.73l-2.25-1.44.28,1.31Z"/>
  <path class="cls-1" d="M1180.87,479.42l-1.27.77c-12,7.32-17.61,16.19-17.19,27.14l.11,2.5,1.74-1.46c6.49-5.36,14.61-19.09,17.01-26.89l.87-2.84-1.27.77Z"/>
  <path class="cls-1" d="M1173.82,503.39l-.91.85c-3.07,2.94-13.02,13.51-12.15,26.59.13,2.01.59,4.17,1.37,6.42l.7,2.09,1.29-1.79c4.75-6.69,11.06-24.32,10.71-32.53l-.11-2.48-.89.86Z"/>
  <path class="cls-1" d="M1174.33,526.09l-.68,1c-5.01,7.44-7.56,15.08-7.41,22.13.14,5.21,1.8,10.19,4.94,14.81l1.05,1.57.89-1.65c2.17-4.08,3.87-17.27,3.63-27.72-.09-3.69-.47-6.74-1.08-8.83l-.66-2.3-.67,1Z"/>
  <path class="cls-1" d="M1180.14,550.37l-.31,1.05c-1.5,4.84-2.22,9.56-2.09,14.05.3,10.15,4.78,18.1,13.38,23.59l1.45.91.31-1.95s.13-1.56.13-1.56c-.24-8.25-6.39-29.03-11.21-35.37l-1.33-1.74-.33,1.03Z"/>
  <path class="cls-1" d="M1163.23,582.57l.63,1.04c6.46,10.83,17.43,24.8,37.93,21.22l1.71-.31-.97-1.43c-3.83-5.7-28.71-19.74-37.52-21.18l-2.4-.4.62,1.05Z"/>
  <path class="cls-1" d="M1193.57,610.07h0l-3.22.87,3.09,1.27c13.04,5.33,29.39,6.91,38.86,3.73,3.57-1.22,5.72-3.17,8.37-5.75,16.68,1.74,32.31,15.61,41.41,26.94l.49.56.71-.21c1.03-.36,2.6-1.58,3.26-2.29l.64-.69-.57-.76c-9.51-12.42-24.38-20.12-25.04-20.43-13.39-6.53-37.02-11.62-68-3.21"/>
  <path class="cls-1" d="M1194.26,575.39l.19,1.09c1.95,12.29,6.94,28.4,27.69,26.62l1.33-.11-.33-1.3c-1.4-5.58-20.41-21.81-27.05-26.38l-1.99-1.03.17,1.1Z"/>
  <path class="cls-1" d="M1340.94,461.77l.55,3.17c1.92,11.27,6.66,21.04,12.96,26.81l1.44,1.32.5-2.29s.16-.77.16-.81c1.58-11.54-8.7-22.08-13.21-26.06l-1.2-1.06-1.2-1.08Z"/>
  <path class="cls-1" d="M1362.55,481.41l-1.09,2.75c-3.19,8.1-4.64,26.23-3.54,34.88l.98,4.89.77-.97.74-.96c6.61-8.05,6.85-18.83,5.87-26.46-.69-5.39-1.98-9.43-2.7-11.36l-.52-1.4-.5-1.38Z"/>
  <path class="cls-1" d="M1370.58,512.55l-1.8,2.2c-6.36,7.78-14.85,29.47-15.11,36.74l-.08,2.17,1.82-1.18c15.52-10.16,15.91-29.31,15.37-37.07l-.1-1.43-.09-1.43Z"/>
  <path class="cls-1" d="M1368.28,546.94l-2.25,1.44c-9.98,6.32-25.52,25.5-28.52,33.73l-.8,2.17,2.21-.71c16.11-5.17,26.55-23,28.81-34l.29-1.31.26-1.31Z"/>
  <path class="cls-1" d="M1334.98,478.27l.82,2.86c2.23,7.84,10.08,21.73,16.46,27.22l1.73,1.49.14-2.51c.64-10.93-4.8-19.92-16.65-27.47l-1.27-.8-1.24-.8Z"/>
  <path class="cls-1" d="M1341.78,502.53l-.09,2.49c-.33,8.2,5.94,25.84,10.7,32.52l1.29,1.8.71-2.09c.76-2.26,1.21-4.41,1.34-6.43.87-13.08-9.08-23.65-12.15-26.58l-.89-.86-.92-.85Z"/>
  <path class="cls-1" d="M1341.52,525.1l-.69,2.3c-.62,2.08-.98,5.14-1.07,8.82-.25,10.45,1.46,23.65,3.62,27.72l.89,1.65,1.06-1.56c3.14-4.63,4.79-9.61,4.92-14.82.16-7.04-2.39-14.69-7.4-22.13l-.67-1-.66-.99Z"/>
  <path class="cls-1" d="M1336.01,549.34l-1.31,1.74c-4.82,6.35-10.98,27.12-11.2,35.37,0,0,.12,1.52.13,1.56l.32,1.95,1.46-.91c8.58-5.5,13.09-13.44,13.37-23.6.12-4.48-.58-9.2-2.11-14.04l-.33-1.05-.32-1.03Z"/>
  <path class="cls-1" d="M1353.89,581.52l-2.4.4c-8.79,1.44-33.69,15.48-37.52,21.18l-.97,1.44,1.71.3c20.53,3.58,31.48-10.39,37.94-21.22l.62-1.05.62-1.05Z"/>
  <path class="cls-1" d="M1254.93,613.29c-.65.31-15.54,8.02-25.02,20.43l-.58.76.65.7c.66.71,2.22,1.93,3.26,2.28l.7.23.49-.57c9.09-11.33,24.72-25.2,41.4-26.93,2.65,2.58,4.81,4.53,8.39,5.74,9.46,3.2,25.81,1.62,38.86-3.72l3.09-1.27-3.22-.86c-31-8.41-54.63-3.31-68.01,3.21"/>
  <path class="cls-1" d="M1322.42,574.3l-1.98,1.03c-6.65,4.55-25.66,20.79-27.06,26.38l-.32,1.29,1.31.11c20.76,1.78,25.74-14.33,27.71-26.62l.18-1.09.17-1.09Z"/>
  <path class="cls-1" d="M793.75,498.92h22.05v116.5h-22.05v-116.5ZM791.67,447.85h26.23v23.91h-26.23v-23.91Z"/>
  <path class="cls-1" d="M627.32,499.02h22.05v116.51h-21.58v-17.19h-.46c-8.83,14.63-23.68,20.66-39.93,20.66-24.37,0-38.3-18.58-38.3-42.01v-77.98h22.06v68.93c0,20.2,4.63,35.04,25.75,35.04,9.06,0,21.36-4.65,25.99-16.7,4.17-10.92,4.42-24.61,4.42-27.39v-59.89Z"/>
  <path class="cls-1" d="M693.39,516.19h.47c7.42-14.62,23.68-20.64,35.28-20.64,8.12,0,44.09,2.09,44.09,39.45v80.53h-22.04v-73.32c0-19.27-8.14-29.71-26.7-29.71,0,0-12.07-.69-21.36,8.58-3.24,3.24-9.28,8.35-9.28,31.1v63.35h-22.05v-116.5h21.58v17.17Z"/>
  <path class="cls-1" d="M908.13,536.39c-1.16-14.54-8.06-24.66-23.74-24.66-20.96,0-29.05,18.18-29.05,45.42s8.09,45.43,29.05,45.43c14.51,0,23.5-9.43,24.64-26.06h21.93c-1.87,26.06-21.22,41.95-46.82,41.95-37.11,0-51.86-26.26-51.86-60.4s17.05-62.27,53.73-62.27c24.45,0,42.87,15.46,44,40.6h-21.88Z"/>
  <path class="cls-1" d="M1022.45,546.09c.47-19.36-8.32-34.36-29.53-34.36-18.24,0-29.04,15.4-29.04,34.36h58.56ZM963.89,561.28c-1.61,20.31,6.69,41.29,29.04,41.29,17.07,0,25.59-6.67,28.12-23.55h23.09c-3.48,26.33-23.77,39.45-51.42,39.45-37.13,0-51.91-26.26-51.91-60.41s17.1-62.27,53.75-62.27c34.57.72,50.93,22.59,50.93,54.68v10.81h-81.6Z"/>
  <path class="cls-1" d="M1070.31,615.03v-100.54h-19.92v-15.25h19.92v-24.87c.71-25.37,19.82-32.05,36.2-32.05,5.3,0,10.39,1.37,15.71,2.28v18.21c-3.73-.2-7.4-.7-11.1-.7-12.43,0-19.59,3.26-18.9,15.93v21.2h26.76v15.25h-26.76v100.54h-21.9Z"/>
</svg>