<?xml version="1.0" encoding="UTF-8"?>
<svg id="Layer_1" data-name="Layer 1" xmlns="http://www.w3.org/2000/svg" viewBox="0 0 1920 1080">
  <defs>
    <style>
      .cls-1 {
        fill: #fff;
      }
    </style>
  </defs>
  <path class="cls-1" d="M868.1,402.66h-.01c-.1-.14-.23-.29-.36-.44l.37.44Z"/>
  <path class="cls-1" d="M883.38,447.17c0,17.17-5.77,32.78-15.25,44.6-9.45-11.82-15.2-27.45-15.2-44.61s5.72-32.68,15.16-44.49c9.51,11.81,15.3,27.31,15.29,44.5Z"/>
  <path class="cls-1" d="M868.09,402.67c-9.44,11.81-15.16,27.34-15.16,44.49s5.75,32.79,15.2,44.61c9.48-11.82,15.25-27.43,15.25-44.6.01-17.19-5.78-32.69-15.29-44.5ZM867.97,402.52s.07.11.11.16h.01s-.12-.16-.12-.16ZM867.97,402.52s.07.11.11.16h.01s-.12-.16-.12-.16ZM868.09,402.67c-9.44,11.81-15.16,27.34-15.16,44.49s5.75,32.79,15.2,44.61c9.48-11.82,15.25-27.43,15.25-44.6.01-17.19-5.78-32.69-15.29-44.5ZM868.09,402.67c-9.44,11.81-15.16,27.34-15.16,44.49s5.75,32.79,15.2,44.61c9.48-11.82,15.25-27.43,15.25-44.6.01-17.19-5.78-32.69-15.29-44.5ZM867.97,402.52s.07.11.11.16h.01s-.12-.16-.12-.16ZM820.19,358.8l-41.98,41.97v320.42h321.6l41.97-41.98v-320.41h-321.59ZM1016.66,458.08v-21.62h.01v-35.5h77.01v21.62h-55.4v13.88h55.4v21.62h-55.41v14.31h55.41v21.63h-77.02v-35.94s0,0,0,0ZM919.64,400.96h21.6l44.06,44.06v-44.06h21.63v93.06h-21.63l-44.04-44.1v44.11h-21.62v-93.07ZM837.56,411.99c5.22-7.1,13.64-11.03,22.52-11.03h16.16c8.89,0,17.31,3.94,22.52,11.04,7.02,9.54,11.23,21.78,11.23,35.13s-4.52,26.46-12,36.15c-5.26,6.82-13.5,10.74-22.19,10.74h-15.3c-8.7,0-16.94-3.93-22.2-10.75-7.47-9.69-11.98-22.33-11.98-36.15s4.22-25.59,11.24-35.13ZM1126.86,673.03l-33.22,33.23h-300.49s0-163.47,0-163.47h333.71v130.24ZM883.38,447.17c.01-17.19-5.78-32.69-15.29-44.5-9.44,11.81-15.16,27.34-15.16,44.49s5.75,32.79,15.2,44.61c9.48-11.82,15.25-27.43,15.25-44.6ZM867.97,402.52s.07.11.11.16h.01s-.12-.16-.12-.16ZM867.97,402.52s.07.11.11.16h.01s-.12-.16-.12-.16ZM868.09,402.67c-9.44,11.81-15.16,27.34-15.16,44.49s5.75,32.79,15.2,44.61c9.48-11.82,15.25-27.43,15.25-44.6.01-17.19-5.78-32.69-15.29-44.5ZM868.09,402.67c-9.44,11.81-15.16,27.34-15.16,44.49s5.75,32.79,15.2,44.61c9.48-11.82,15.25-27.43,15.25-44.6.01-17.19-5.78-32.69-15.29-44.5ZM867.97,402.52s.07.11.11.16h.01s-.12-.16-.12-.16ZM868.09,402.67c-9.44,11.81-15.16,27.34-15.16,44.49s5.75,32.79,15.2,44.61c9.48-11.82,15.25-27.43,15.25-44.6.01-17.19-5.78-32.69-15.29-44.5ZM867.97,402.52s.07.11.11.16h.01s-.12-.16-.12-.16ZM1044.47,494.02h-9.58"/>
  <path class="cls-1" d="M900.02,568.43c-4.59,0-8.31,3.72-8.31,8.31s3.72,8.31,8.31,8.31,8.31-3.72,8.31-8.31-3.72-8.31-8.31-8.31ZM868.07,568.43c-4.59,0-8.32,3.72-8.32,8.31s3.73,8.31,8.32,8.31,8.31-3.72,8.31-8.31-3.72-8.31-8.31-8.31ZM923.12,600.02v17.97c0,6.6-5.36,11.98-11.96,11.98h-5.96c1.73-3.63,2.72-7.7,2.72-11.98v-17.97h-15.79v17.97c0,6.6-5.37,11.98-11.98,11.98h-4.19v-29.95h-15.78v47.33c0,4.53-3.69,8.22-8.22,8.22s-8.23-3.69-8.23-8.22v-17.31l-15.78-15.79v33.1c0,13.23,10.77,24,24.01,24s24-10.77,24-24v-1.6h4.19c6.48,0,12.42-2.24,17.15-5.96v5.96h13.86c15.3,0,27.75-12.46,27.75-27.76v-17.97h-15.79ZM931.02,568.43c-4.59,0-8.31,3.72-8.31,8.31s3.72,8.31,8.31,8.31,8.31-3.72,8.31-8.31-3.72-8.31-8.31-8.31ZM1071.14,598.39h-70.99v-14.31h93.77v-15.78h-109.55v45.87h86.77c4.42,0,8.01,3.6,8.01,8.02s-3.59,8.02-8.01,8.02h-101.95v-61.93h-15.78v77.71h117.73c13.12,0,23.79-10.68,23.79-23.8s-10.67-23.8-23.79-23.8Z"/>
  <polygon class="cls-1" points="1016.68 458.08 1016.66 494.02 1016.66 458.08 1016.68 458.08"/>
</svg>