<?xml version="1.0" encoding="UTF-8"?>
<svg id="Layer_2" data-name="Layer 2" xmlns="http://www.w3.org/2000/svg" viewBox="0 0 100.33 94.67">
  <defs>
    <style>
      .cls-1 {
        fill: #174fa3;
      }

      .cls-2 {
        fill: #3b6aff;
        fill-rule: evenodd;
      }
    </style>
  </defs>
  <g id="Layer_1-2" data-name="Layer 1">
    <g>
      <polygon class="cls-2" points="84.84 94.67 0 94.67 0 0 84.84 0 84.84 22.84 95.68 37.48 85.19 52.01 84.84 94.67"/>
      <rect class="cls-1" x="13.81" y="22.5" width="39.48" height="8.1"/>
      <rect class="cls-1" x="13.81" y="37.76" width="34.92" height="8.1"/>
      <rect class="cls-1" x="13.81" y="53.01" width="43.71" height="8.1"/>
      <rect class="cls-1" x="13.81" y="68.27" width="54.84" height="8.1"/>
      <path class="cls-1" d="M80.35,57.45c-3.07,0-6.11-.72-8.93-2.13-4.76-2.39-8.31-6.49-9.99-11.55-1.68-5.06-1.28-10.47,1.11-15.23,2.39-4.77,6.49-8.31,11.55-9.99,5.06-1.68,10.47-1.28,15.23,1.11,4.76,2.39,8.31,6.49,9.99,11.55h0c3.46,10.44-2.22,21.76-12.66,25.22-2.07.68-4.19,1.02-6.3,1.02ZM80.36,26.82c-1.11,0-2.24.17-3.35.54-2.71.89-4.9,2.79-6.18,5.33-1.28,2.55-1.49,5.44-.59,8.14.9,2.7,2.79,4.9,5.34,6.17,2.55,1.28,5.44,1.49,8.14.59,5.58-1.85,8.61-7.89,6.76-13.48-1.48-4.47-5.66-7.3-10.13-7.3Z"/>
      <rect class="cls-1" x="84.14" y="48.68" width="9.3" height="29.93" transform="translate(-15.52 31.18) rotate(-18.34)"/>
    </g>
  </g>
</svg>