<?xml version="1.0" encoding="UTF-8"?>
<svg id="Layer_2" data-name="Layer 2" xmlns="http://www.w3.org/2000/svg" viewBox="0 0 72.19 66.03">
  <defs>
    <style>
      .cls-1 {
        fill: #174fa3;
      }

      .cls-2 {
        fill: #3b6aff;
      }
    </style>
  </defs>
  <g id="Layer_1-2" data-name="Layer 1">
    <g>
      <path class="cls-2" d="M69.03,7.32L62.07.33l-25.77,25.68-7.65-7.65c1.2-2.82,1.38-5.97.51-8.91-.87-2.94-2.73-5.49-5.28-7.2C21.36.54,18.3-.24,15.24.06c-3.06.3-5.91,1.65-8.07,3.81-2.16,2.16-3.51,5.01-3.81,8.07-.3,3.06.48,6.12,2.19,8.64,1.71,2.55,4.26,4.41,7.2,5.28,2.94.87,6.09.72,8.91-.48l7.65,7.65-7.65,7.65c-2.82-1.2-5.97-1.38-8.91-.51-2.94.87-5.49,2.73-7.2,5.28-1.71,2.55-2.49,5.61-2.19,8.64.3,3.06,1.65,5.91,3.81,8.07,2.16,2.19,5.01,3.51,8.07,3.81,3.06.3,6.12-.48,8.64-2.19,2.55-1.71,4.41-4.26,5.28-7.2.87-2.94.69-6.09-.51-8.91L69.03,7.32ZM21.18,17.88c-1.26,1.23-2.94,1.92-4.68,1.92s-3.42-.69-4.68-1.92c-1.23-1.23-1.92-2.91-1.92-4.68s.69-3.42,1.92-4.65c1.26-1.26,2.94-1.95,4.68-1.95s3.42.69,4.68,1.95c1.23,1.23,1.92,2.91,1.92,4.65s-.69,3.45-1.92,4.68ZM21.18,57.51c-1.26,1.23-2.94,1.92-4.68,1.92s-3.42-.69-4.68-1.92c-1.23-1.26-1.92-2.94-1.92-4.68s.69-3.42,1.92-4.68c1.26-1.23,2.94-1.92,4.68-1.92s3.42.69,4.68,1.92c1.23,1.26,1.92,2.94,1.92,4.68s-.69,3.42-1.92,4.68Z"/>
      <polygon class="cls-2" points="41.24 37.68 62.29 58.73 55.47 65.93 34.24 44.69 41.24 37.68 41.24 37.68"/>
      <g>
        <rect class="cls-1" x="52.38" y="29.72" width="6.6" height="6.6"/>
        <rect class="cls-1" x="65.59" y="29.72" width="6.6" height="6.6"/>
        <rect class="cls-1" y="29.72" width="6.6" height="6.6"/>
        <rect class="cls-1" x="13.21" y="29.72" width="6.6" height="6.6"/>
      </g>
    </g>
  </g>
</svg>