<?xml version="1.0" encoding="UTF-8"?>
<svg id="Layer_2" data-name="Layer 2" xmlns="http://www.w3.org/2000/svg" viewBox="0 0 74.59 67.61">
  <defs>
    <style>
      .cls-1 {
        fill: #174fa3;
      }

      .cls-2 {
        fill: #3b6aff;
      }
    </style>
  </defs>
  <g id="Layer_1-2" data-name="Layer 1">
    <g>
      <path class="cls-2" d="M74.59,67.61c-2.53-.43-5.36-.2-7.88-.2h-14.22c-17.51.07-34.98.07-52.49-.07,1.57-4.5,3.91-8.38,7.36-11.73,4.14-4.01,9.79-6.8,15.54-7.42,1.74-.2,4.8-.14,6.55-.11,0,1.25-.34-1.6-.34-3.73,5.95,2.43,11.3,2.43,17.31.13l1.18-.69c.07,1.48.07,2.96.07,4.43,7.72-.3,13.4.03,19.41,5.58,3.64,3.38,6.83,8.8,7.52,13.8Z"/>
      <path class="cls-2" d="M46.51,46.88c.07,2.66.1,4.86-1.28,7.23-.06.13-.16.26-.23.39-.1.16-.2.3-.3.39-.06.13-.16.26-.26.39-.13.13-.23.26-.33.36-.1.13-.2.23-.33.36-.1.1-.23.23-.33.33-.13.1-.26.23-.36.33-.13.1-.26.2-.39.3-.13.1-.26.2-.39.26-.13.1-.26.2-.39.26-.13.1-.26.16-.43.23-.13.1-.26.16-.43.23-.13.07-.26.13-.43.2-.13.07-.3.13-.46.16-.13.07-.3.13-.43.16-.16.07-.33.1-.46.13-.17.03-.3.07-.43.1-.16.03-.3.07-.43.1-.16,0-.3.03-.43.03-.16.03-.3.03-.43.03-.16.03-.3.03-.46.03h-.43c-.13-.03-.3-.03-.43-.03-.13-.03-.3-.03-.43-.07-.13,0-.3-.03-.43-.07-.13-.03-.3-.07-.43-.1-.13-.03-.26-.07-.43-.1-.13-.07-.26-.1-.39-.13-.13-.07-.26-.13-.39-.16-.13-.07-.26-.13-.39-.2-.13-.07-.26-.13-.39-.2-.13-.07-.26-.13-.39-.2-1.74-1.08-2.89-2.66-3.38-4.66-.16-.72-.1-1.48-.1-2.23.04-2.14,0-4.27,0-6.41,5.95,2.43,11.3,2.43,17.31.13.2.72.1,1.64.1,2.4Z"/>
      <path class="cls-2" d="M63.66,11.44c-1.51,2.4-3.94,3.71-6.67,4.3v.03h-1.12c1.71,2.46,2.13,7.62,1.91,10.54,0,.16-.04.36-.04.53-.03.16-.03.36-.06.53,0,.16-.03.33-.06.53-.04.16-.07.33-.07.49-.03.16-.06.36-.1.53-.03.16-.06.33-.13.49-.03.2-.06.36-.1.53-.07.16-.1.33-.13.49-.07.16-.1.36-.17.53-.03.16-.1.33-.16.49-.03.16-.1.33-.16.49-.06.16-.13.33-.2.49-.04.16-.1.33-.2.46-.06.16-.13.33-.2.49-.07.16-.13.33-.23.46-.06.16-.13.33-.23.49-.06.13-.13.3-.23.46-.1.13-.16.3-.26.46-.07.13-.16.3-.26.43-.1.16-.16.3-.26.46-.1.13-.2.3-.3.43-.1.13-.2.3-.3.43-.1.13-.2.3-.33.43-.1.13-.2.26-.3.39-.13.16-.23.3-.36.43-.1.13-.2.26-.33.39-.1.13-.23.26-.36.39-.1.1-.23.23-.36.36-.1.13-.23.26-.36.36-.13.13-.23.26-.36.36-.13.13-.26.23-.39.36-.13.1-.26.23-.39.33-3.97,3.35-9.07,4.86-14.19,4.4-.33,0-.63-.07-.95-.1-.3-.03-.62-.1-.92-.16-.33-.07-.62-.13-.95-.2-.3-.07-.59-.13-.89-.23-.33-.1-.63-.16-.92-.26-.3-.1-.59-.23-.89-.33-.3-.1-.59-.23-.89-.36-.26-.13-.56-.26-.85-.39-.26-.13-.56-.26-.82-.43-.3-.13-.56-.3-.85-.46l-.79-.49c-.26-.16-.53-.36-.79-.53-.23-.2-.49-.39-.75-.59-.23-.2-.49-.39-.72-.59-.23-.2-.46-.43-.69-.62-.23-.23-.46-.43-.69-.66-4.37-4.53-6.08-10.25-5.98-16.42h-.92v-1.97c0-5.58-.03-9.56,3.58-14.22l.49-.59c.2-.23.36-.43.56-.59.16-.2.36-.39.56-.59.2-.16.39-.36.59-.53.2-.16.39-.33.63-.49.2-.16.43-.33.62-.49.23-.13.43-.3.66-.43.23-.16.46-.3.69-.43.23-.13.46-.23.72-.36.23-.13.46-.23.72-.33.23-.13.46-.23.72-.3.26-.1.49-.2.76-.3.26-.07.49-.13.75-.2.26-.1.53-.13.79-.2.26-.07.53-.1.79-.16.26-.03.52-.07.79-.1,4.27-.53,8.44.85,11.79,3.48,7.69.1,15.41-.1,23.13.1.13,2.76-.1,5.35-1.61,7.75Z"/>
      <path class="cls-1" d="M57.78,26.32c0,.16-.04.36-.04.53-.03.16-.03.36-.06.53,0,.16-.03.33-.06.53-.04.16-.07.33-.07.49-.03.16-.06.36-.1.53-.03.16-.06.33-.13.49-.03.2-.06.36-.1.53-.07.16-.1.33-.13.49-.07.16-.1.36-.17.53-.03.16-.1.33-.16.49-.03.16-.1.33-.16.49-.06.16-.13.33-.2.49-.04.16-.1.33-.2.46-.06.16-.13.33-.2.49-.07.16-.13.33-.23.46-.06.16-.13.33-.23.49-.06.13-.13.3-.23.46-.1.13-.16.3-.26.46-.07.13-.16.3-.26.43-.1.16-.16.3-.26.46-.1.13-.2.3-.3.43-.1.13-.2.3-.3.43-.1.13-.2.3-.33.43-.1.13-.2.26-.3.39-.13.16-.23.3-.36.43-.1.13-.2.26-.33.39-.1.13-.23.26-.36.39-.1.1-.23.23-.36.36-.1.13-.23.26-.36.36-.13.13-.23.26-.36.36-.13.13-.26.23-.39.36-.13.1-.26.23-.39.33-3.97,3.35-9.07,4.86-14.19,4.4-.33,0-.63-.07-.95-.1-.3-.03-.62-.1-.92-.16-.33-.07-.62-.13-.95-.2-.3-.07-.59-.13-.89-.23-.33-.1-.63-.16-.92-.26-.3-.1-.59-.23-.89-.33-.3-.1-.59-.23-.89-.36-.26-.13-.56-.26-.85-.39-.26-.13-.56-.26-.82-.43-.3-.13-.56-.3-.85-.46l-.79-.49c-.26-.16-.53-.36-.79-.53-.23-.2-.49-.39-.75-.59-.23-.2-.49-.39-.72-.59-.23-.2-.46-.43-.69-.62-.23-.23-.46-.43-.69-.66-4.37-4.53-6.08-10.25-5.98-16.42,2.63-.1,5.29-.03,7.95-.03,2.1,0,4.34.13,6.37-.43,3.35-.89,5.98-3.22,7.69-6.18,5.65-.23,11.37-.03,17.02.03,1.71,2.46,2.13,7.62,1.91,10.54Z"/>
    </g>
  </g>
</svg>