<?xml version="1.0" encoding="UTF-8"?>
<svg id="Layer_2" data-name="Layer 2" xmlns="http://www.w3.org/2000/svg" viewBox="0 0 71.21 77.83">
  <defs>
    <style>
      .cls-1 {
        fill: #174fa3;
      }

      .cls-2 {
        fill: #3b6aff;
      }
    </style>
  </defs>
  <g id="Layer_1-2" data-name="Layer 1">
    <g>
      <g>
        <path class="cls-2" d="M35.6,40.87l32.78-19.67L35.6,1.75,2.82,21.21l32.78,19.67Z"/>
        <path class="cls-1" d="M70.97,21L35.6,0,.24,21l-.24.14v.12l35.43,21.26.17.1.18-.11,35.43-21.25v-.12l-.24-.14ZM35.6,39.12L5.75,21.21,35.6,3.49l29.86,17.72-29.86,17.91Z"/>
      </g>
      <g>
        <path class="cls-2" d="M2.13,56l32.15,19.3v-32.13L1.5,23.5v31.38c0,.46.24.89.64,1.12Z"/>
        <path class="cls-1" d="M35.61,42.21L.24,21l-.24.14v35.24l35.43,21.35.18.1.17-.1v-35.42l-.17-.1ZM32.78,72.64L3,54.77v-28.63l29.78,17.87v28.63Z"/>
      </g>
      <g>
        <path class="cls-2" d="M36.93,43.16v32.13l32.78-19.6V23.5l-32.78,19.67h0Z"/>
        <path class="cls-1" d="M70.97,21l-35.36,21.21-.18.1v35.42l.18.1.17-.1,35.43-21.19V21.14l-.24-.14ZM68.21,54.84l-29.78,17.81v-28.64l29.78-17.87v28.7Z"/>
      </g>
    </g>
  </g>
</svg>